<?xml version="1.0" encoding="UTF-8"?>
<svg width="26px" height="30px" viewBox="0 0 26 30" version="1.1" xmlns="http://www.w3.org/2000/svg" xmlns:xlink="http://www.w3.org/1999/xlink">
    <title>编组</title>
    <g id="页面-1" stroke="none" stroke-width="1" fill="none" fill-rule="evenodd">
        <g id="5.4学习-首页-我的课程-讲次详情" transform="translate(-46.000000, -728.000000)" fill="#E94831" fill-rule="nonzero">
            <g id="编组-9" transform="translate(0.000000, 416.000000)">
                <g id="编组-8" transform="translate(46.000000, 308.000000)">
                    <g id="编组" transform="translate(0.000000, 4.000000)">
                        <path d="M16.6463448,0 C18.2138621,0 19.5398621,1.02279161 19.9794138,2.43040367 L22.3993793,2.43047182 C24.3677931,2.43047182 25.9677241,3.99159633 25.9995172,5.92987418 L26,5.98872346 L26,26.156 C26,28.1018087 24.4197586,29.6823906 22.4588966,29.7138087 L22.3993793,29.7142857 L3.60062069,29.7142857 C1.6322069,29.7142857 0.0322758621,28.1531612 0.000482758621,26.2148493 L0,26.156 L0,5.98872346 C0,4.04294889 1.58024138,2.4623329 3.54110345,2.43094889 L3.60062069,2.43047182 L6.02062069,2.43040367 C6.46013793,1.02279161 7.78613793,0 9.35365517,0 L16.6463448,0 Z M19.9793793,4.46889908 C19.5398621,5.87657929 18.2138621,6.8993709 16.6463448,6.8993709 L9.35365517,6.8993709 C7.78613793,6.8993709 6.46013793,5.87657929 6.02062069,4.46889908 L3.60062069,4.46889908 C2.75906897,4.46889908 2.07565517,5.13522149 2.0612069,5.96200786 L2.06096552,5.98872346 L2.06096552,26.156 C2.06096552,26.986194 2.73544828,27.6613421 3.57355172,27.6758244 L3.60062069,27.6758244 L15.6951034,27.6758244 L15.6951034,27.5974495 L17.7561034,27.5974495 L17.756069,27.6758244 L22.3993793,27.6758244 C23.240931,27.6758244 23.9243448,27.009536 23.9387931,26.1827497 L23.9390345,26.156 L23.9390345,5.98872346 C23.9390345,5.15856356 23.2645517,4.48341547 22.4264483,4.46913761 L22.3993793,4.46889908 L19.9793793,4.46889908 Z M11.9686207,17.7972215 C12.5382414,17.7972215 13,18.2535334 13,18.8164351 C13,19.3793368 12.5382414,19.8356488 11.9686207,19.8356488 L7.29358621,19.8356488 C6.72396552,19.8356488 6.2622069,19.3793368 6.2622069,18.8164351 C6.2622069,18.2535334 6.72396552,17.7972215 7.29358621,17.7972215 L11.9686207,17.7972215 Z M18.7064138,12.857903 C19.2760345,12.857903 19.7377931,13.3142149 19.7377931,13.8771166 C19.7377931,14.4400524 19.2760345,14.8963303 18.7064138,14.8963303 L7.29358621,14.8963303 C6.72396552,14.8963303 6.2622069,14.4400524 6.2622069,13.8771166 C6.2622069,13.3142149 6.72396552,12.857903 7.29358621,12.857903 L18.7064138,12.857903 Z M16.6463448,2.03842726 L9.35365517,2.03842726 C8.56565517,2.03842726 7.92682759,2.67026474 7.92682759,3.44968545 C7.92682759,4.22907208 8.56565517,4.86090957 9.35365517,4.86090957 L16.6463448,4.86090957 C17.4343448,4.86090957 18.0731724,4.22907208 18.0731724,3.44968545 C18.0731724,2.67026474 17.4343448,2.03846134 16.6463448,2.03846134 L16.6463448,2.03842726 Z" id="形状"></path>
                    </g>
                </g>
            </g>
        </g>
    </g>
</svg>