<?xml version="1.0" encoding="UTF-8"?>
<svg width="40px" height="44px" viewBox="0 0 40 44" version="1.1" xmlns="http://www.w3.org/2000/svg" xmlns:xlink="http://www.w3.org/1999/xlink">
    <title>编组</title>
    <g id="页面-1" stroke="none" stroke-width="1" fill="none" fill-rule="evenodd">
        <g id="5.3学习-首页-我的课程-讲次列表" transform="translate(-252.000000, -375.000000)" fill="#FFFFFF" fill-rule="nonzero">
            <g id="编组-4" transform="translate(224.000000, 375.000000)">
                <g id="编组" transform="translate(28.000000, 0.000000)">
                    <path d="M34.3468947,0 C37.4356329,0 39.9454108,2.48064072 39.9953322,5.55965016 L39.9960692,5.65310535 L39.9960692,12.8701847 C39.9960692,13.6819477 39.3384925,14.3400157 38.52727,14.3400157 C37.7276926,14.3400157 37.0772897,13.7006191 37.0589131,12.9048742 L37.05852,12.8701847 L37.05852,5.65310535 C37.05852,4.16946737 35.8686616,2.96393475 34.3917551,2.9400059 L34.3468947,2.93961281 L5.64917453,2.93961281 C4.1665684,2.93961281 2.96187107,4.1303066 2.93789308,5.60824489 L2.93754914,5.65310535 L2.93754914,37.5367531 C2.93754914,39.0203911 4.12740763,40.2259237 5.60431407,40.2498526 L5.64917453,40.2502457 L16.0186714,40.2502457 C16.8298939,40.2502457 17.4874214,40.9083137 17.4874214,41.7200275 C17.4874214,42.5201946 16.8485161,43.1709906 16.0533117,43.1898585 L5.64917453,43.1898585 C2.56043632,43.1898585 0.0506092767,40.7092178 0.000737028302,37.6302083 L0,37.5367531 L0,5.65310535 C0,2.56220519 2.47887186,0.0507075472 5.55571934,0.000737028302 L5.64917453,0 L34.3468947,0 Z M39.5619104,21.116991 C40.1285377,21.6797366 40.1409689,22.5899666 39.5965998,23.167895 L39.5698211,23.1956073 L24.7690153,38.1198408 C24.1975727,38.6960004 23.2676395,38.6995381 22.691873,38.1277024 C22.1251965,37.5650059 22.1128145,36.6547759 22.6571836,36.0767983 L22.6839623,36.0491352 L37.4847681,21.1249017 C38.0562107,20.548693 38.9861439,20.5451553 39.5619104,21.116991 Z M23.1615566,22.2732901 C23.9727791,22.2732901 24.6303557,22.9313581 24.6303557,23.7431211 C24.6303557,24.5432881 23.9914013,25.1940841 23.1962461,25.2125098 L23.1615566,25.212952 L9.5495283,25.212952 C8.73830582,25.212952 8.08072917,24.554884 8.08072917,23.7431211 C8.08072917,22.942954 8.71968357,22.292158 9.51483884,22.2736832 L9.5495283,22.2732901 L23.1615566,22.2732901 Z M30.7156545,13.1182685 C31.526877,13.1182685 32.1844536,13.7762873 32.1844536,14.5880503 C32.1844536,15.3882174 31.5454992,16.0390134 30.7503439,16.0574882 L30.7156545,16.0578813 L9.5495283,16.0578813 C8.73830582,16.0578813 8.08072917,15.3998133 8.08072917,14.5880503 C8.08072917,13.7878833 8.71968357,13.1370873 9.51483884,13.1186616 L9.5495283,13.1182685 L30.7156545,13.1182685 L30.7156545,13.1182685 Z" id="形状"></path>
                </g>
            </g>
        </g>
    </g>
</svg>