<?xml version="1.0" encoding="UTF-8"?>
<svg width="40px" height="47px" viewBox="0 0 40 47" version="1.1" xmlns="http://www.w3.org/2000/svg" xmlns:xlink="http://www.w3.org/1999/xlink">
    <title>编组</title>
    <g id="页面-1" stroke="none" stroke-width="1" fill="none" fill-rule="evenodd">
        <g id="5.3学习-首页-我的课程-讲次列表" transform="translate(-441.000000, -376.000000)" fill="#FFFFFF" fill-rule="nonzero">
            <g id="编组-5" transform="translate(413.000000, 376.000000)">
                <g id="编组" transform="translate(28.000000, 0.000000)">
                    <path d="M25.6097613,0 C28.0213263,0 30.0613263,1.59230769 30.7375597,3.78371353 L34.4605836,3.78381963 C37.4889125,3.78381963 39.9503448,6.21421751 39.9992573,9.23177719 L40,9.32339523 L40,40.7203183 C40,43.7496021 37.5688594,46.2102918 34.5521485,46.2592042 L34.4605836,46.2599469 L5.53941645,46.2599469 C2.51108753,46.2599469 0.0496551724,43.8295491 0.00074270557,40.8119363 L0,40.7203183 L0,9.32339523 C0,6.29416446 2.43114058,3.83342175 5.44785146,3.78456233 L5.53941645,3.78381963 L9.26249337,3.78371353 C9.93867374,1.59230769 11.9786737,0 14.3902387,0 L25.6097613,0 Z M30.7375066,6.95729443 C30.0613263,9.14880637 28.0213263,10.7411141 25.6097613,10.7411141 L14.3902387,10.7411141 C11.9786737,10.7411141 9.93867374,9.14880637 9.26249337,6.95729443 L5.53941645,6.95729443 C4.24472149,6.95729443 3.19331565,7.99464191 3.17108753,9.28180371 L3.17071618,9.32339523 L3.17071618,40.7203183 C3.17071618,42.0127851 4.20838196,43.0638727 5.49777188,43.0864191 L5.53941645,43.0864191 L24.146313,43.0864191 L24.146313,42.9644032 L27.3170822,42.9644032 L27.3170292,43.0864191 L34.4605836,43.0864191 C35.7552785,43.0864191 36.8066844,42.0491247 36.8289125,40.7619629 L36.8292838,40.7203183 L36.8292838,9.32339523 C36.8292838,8.03098143 35.791618,6.9798939 34.5022281,6.95766578 L34.4605836,6.95729443 L30.7375066,6.95729443 Z M18.4132626,27.7071618 C19.2896021,27.7071618 20,28.4175597 20,29.2938992 C20,30.1702387 19.2896021,30.8806366 18.4132626,30.8806366 L11.2209019,30.8806366 C10.3445623,30.8806366 9.63416446,30.1702387 9.63416446,29.2938992 C9.63416446,28.4175597 10.3445623,27.7071618 11.2209019,27.7071618 L18.4132626,27.7071618 Z M28.7790981,20.0175066 C29.6554377,20.0175066 30.3658355,20.7279045 30.3658355,21.604244 C30.3658355,22.4806366 29.6554377,23.1909814 28.7790981,23.1909814 L11.2209019,23.1909814 C10.3445623,23.1909814 9.63416446,22.4806366 9.63416446,21.604244 C9.63416446,20.7279045 10.3445623,20.0175066 11.2209019,20.0175066 L28.7790981,20.0175066 Z M25.6097613,3.1734748 L14.3902387,3.1734748 C13.177931,3.1734748 12.1951194,4.15713528 12.1951194,5.37055703 C12.1951194,6.58392573 13.177931,7.56758621 14.3902387,7.56758621 L25.6097613,7.56758621 C26.822069,7.56758621 27.8048806,6.58392573 27.8048806,5.37055703 C27.8048806,4.15713528 26.822069,3.17352785 25.6097613,3.17352785 L25.6097613,3.1734748 Z" id="形状"></path>
                </g>
            </g>
        </g>
    </g>
</svg>