<?xml version="1.0" encoding="UTF-8"?>
<svg width="40px" height="44px" viewBox="0 0 40 44" version="1.1" xmlns="http://www.w3.org/2000/svg" xmlns:xlink="http://www.w3.org/1999/xlink">
    <title>编组</title>
    <g id="页面-1" stroke="none" stroke-width="1" fill="none" fill-rule="evenodd">
        <g id="5.3学习-首页-我的课程-讲次列表" transform="translate(-62.000000, -374.000000)" fill="#FFFFFF" fill-rule="nonzero">
            <g id="编组-3" transform="translate(34.000000, 374.000000)">
                <g id="编组" transform="translate(28.000000, 0.000000)">
                    <path d="M35.8421777,0 C38.0277614,0 39.7995283,1.77186517 39.7995283,3.95759631 L39.7995283,39.5762087 C39.7995283,41.7619399 38.0277614,43.533805 35.8421777,43.533805 L3.95735063,43.533805 C1.7717669,43.533805 0,41.7619399 0,39.5762087 L0,3.95759631 C0,1.77186517 1.7717669,0 3.95735063,0 L35.8421777,0 L35.8421777,0 Z M35.8421777,2.93990763 L21.3695951,2.93990763 L21.3695951,17.6396914 C21.3695951,18.8939662 19.9037441,19.5665782 18.9540586,18.7650354 L18.9254127,18.7402712 L15.0944379,15.3483196 L11.2634139,18.7402712 C10.3243416,19.5717374 8.8490566,18.9199587 8.81967374,17.6774764 L8.81918239,17.6396423 L8.81918239,2.93990763 L3.95735063,2.93990763 C3.40536557,2.93990763 2.95602398,3.37947131 2.9401533,3.92767296 L2.93976022,3.95764544 L2.93976022,39.5762579 C2.93976022,40.1282429 3.37922563,40.5776336 3.92737814,40.5934552 L3.95735063,40.5939465 L35.8421777,40.5939465 C36.3941627,40.5939465 36.8435043,40.154432 36.859375,39.6062303 L36.8597681,39.5762579 L36.8597681,3.95764544 C36.8597681,3.40566038 36.4203027,2.95626965 35.8721502,2.94044811 L35.8421777,2.93990763 L35.8421777,2.93990763 Z M18.429884,3.61841588 L11.7589426,3.61841588 L11.7589426,14.3748526 L14.1200865,12.2844929 C14.6665684,11.8006584 15.483294,11.792158 16.0392099,12.2590409 L16.0687402,12.2844929 L18.429884,14.375 L18.429884,3.61841588 L18.429884,3.61841588 Z" id="形状"></path>
                </g>
            </g>
        </g>
    </g>
</svg>