<?xml version="1.0" encoding="UTF-8"?>
<svg width="60px" height="60px" viewBox="0 0 60 60" version="1.1" xmlns="http://www.w3.org/2000/svg" xmlns:xlink="http://www.w3.org/1999/xlink">
    <title>编组</title>
    <g id="页面-1" stroke="none" stroke-width="1" fill="none" fill-rule="evenodd">
        <g id="5学习-首页" transform="translate(-573.000000, -274.000000)" fill-rule="nonzero">
            <g id="编组-7" transform="translate(40.000000, 239.000000)">
                <g id="编组-3" transform="translate(515.000000, 35.000000)">
                    <g id="编组" transform="translate(18.000000, 0.000000)">
                        <path d="M39.0921336,44.9110991 L8.17887931,44.9110991 C4.16815733,44.9110991 0.905172414,41.6481142 0.905172414,37.6373922 L0.905172414,8.17887931 C0.905172414,4.16815733 4.16815733,0.905172414 8.17887931,0.905172414 L39.0921336,0.905172414 C43.1028556,0.905172414 46.3658405,4.16815733 46.3658405,8.17887931 L46.3658405,37.6373922 C46.3658405,41.6481142 43.1028556,44.9110991 39.0921336,44.9110991 Z M8.17887931,6.36045259 C7.17619881,6.36045259 6.36045259,7.17619881 6.36045259,8.17887931 L6.36045259,37.6373922 C6.36045259,38.6400727 7.17619881,39.455819 8.17887931,39.455819 L39.0921336,39.455819 C40.0948141,39.455819 40.9105603,38.6400727 40.9105603,37.6373922 L40.9105603,8.17887931 C40.9105603,7.17619881 40.0948141,6.36045259 39.0921336,6.36045259 L8.17887931,6.36045259 Z" id="形状" fill="#20263B"></path>
                        <path d="M56.3375471,36.8687433 C56.0292262,36.8687433 55.7231398,36.8164352 55.4323343,36.7139952 L42.7622643,32.256122 C41.6704722,31.8719956 40.9400189,30.840625 40.9400189,29.6832301 L40.9400189,19.9419181 C40.9400189,18.7180729 41.7551893,17.6440514 42.9339238,17.314837 L55.6039938,13.7758149 C56.425628,13.5462755 57.3073348,13.7143682 57.9868868,14.230101 C58.6664388,14.7458337 59.0655509,15.549801 59.0655509,16.402896 L59.0655509,34.1409213 C59.0655509,35.6474852 57.844111,36.8687433 56.3375471,36.8687433 L56.3375471,36.8687433 Z M46.395299,27.7515154 L53.6100889,30.2898572 L53.6100889,19.9968346 L46.395299,22.0120151 L46.395299,27.7515154 L46.395299,27.7515154 Z M3.72118804,59.0042701 C3.18337409,59.0042701 2.65762251,58.8448989 2.21062096,58.5458446 C0.957179418,57.7102775 0.618406519,56.0167767 1.4539736,54.7633351 L10.5461072,41.1251347 C11.382038,39.8715113 13.0755388,39.5331021 14.3286166,40.3686692 C15.5820582,41.2042363 15.9208311,42.8977371 15.085264,44.1511786 L5.99313039,57.789379 C5.46760506,58.577667 4.60257947,59.0042701 3.72118804,59.0042701 Z M45.731937,59.0042701 C44.8503637,59.0042701 43.9855199,58.577667 43.4599946,57.7891972 L34.367861,44.1509968 C33.5321121,42.8975552 33.870885,41.2040544 35.1243265,40.3684873 C36.3775862,39.5329203 38.0712689,39.8715113 38.9068359,41.1249529 L47.9989696,54.7631533 C48.8347185,56.0165948 48.4959456,57.7100956 47.242504,58.5456627 C46.795556,58.8448514 46.2697811,59.0044763 45.731937,59.0042701 L45.731937,59.0042701 Z" id="形状" fill="#20263B"></path>
                        <polygon id="路径" fill="#FF4B07" points="25.7328798 30.9044855 25.7519733 36.3597656 11.2045595 36.4106816 11.1854661 30.9554014"></polygon>
                    </g>
                </g>
            </g>
        </g>
    </g>
</svg>