<?xml version="1.0" encoding="UTF-8"?>
<svg width="60px" height="60px" viewBox="0 0 60 60" version="1.1" xmlns="http://www.w3.org/2000/svg" xmlns:xlink="http://www.w3.org/1999/xlink">
    <title>编组</title>
    <g id="页面-1" stroke="none" stroke-width="1" fill="none" fill-rule="evenodd">
        <g id="5学习-首页" transform="translate(-419.000000, -274.000000)" fill-rule="nonzero">
            <g id="编组-7" transform="translate(40.000000, 239.000000)">
                <g id="编组-5" transform="translate(361.000000, 35.000000)">
                    <g id="编组" transform="translate(18.000000, 0.000000)">
                        <path d="M56.3750625,30 L43.3749375,30 C41.3761875,30 39.75,28.3738125 39.75,26.3750625 L39.75,10.125 C39.75,4.542 44.2921875,0 49.875,0 C55.4578125,0 60,4.542 60,10.125 L60,26.3750625 C60,28.3738125 58.3738125,30 56.3750625,30 L56.3750625,30 Z M45.375,24.375 L54.375,24.375 L54.375,10.125 C54.375,7.643625 52.3561875,5.625 49.875,5.625 C47.3938125,5.625 45.375,7.643625 45.375,10.125 L45.375,24.375 Z M12.002625,59.9998125 C5.392125,60.0005625 0.00825,54.624 -2.71787801e-14,48.008625 C-2.71787801e-14,48.006 -0.0028125,39.56775 -0.0028125,36.5068125 L5.6221875,36.5068125 C5.6221875,39.567375 5.625,48.004125 5.625,48.004125 C5.6293125,51.5173125 8.491125,54.3748125 12.006,54.3748125 L26.74425,54.3748125 L26.74425,59.9998125 L12.002625,59.9998125 Z" id="形状" fill="#20263B"></path>
                        <path d="M35.7088125,60 C30.447375,60 24.5625,55.2459375 24.5625,48.8833125 L24.5625,36.5300625 L30.1875,36.5300625 L30.1875,48.8833125 C30.1875,51.84075 33.2233125,54.375 35.7088125,54.375 L35.7088125,60 Z M16.3125,29.999625 L10.6875,29.999625 L10.6875,9.609 C10.6875,4.3104375 14.9113125,-0.000375 20.103,-0.000375 L49.6558125,-0.000375 L49.6558125,5.624625 L20.103,5.624625 C18.0129375,5.624625 16.3125,7.4120625 16.3125,9.609 L16.3125,29.999625 Z" id="形状" fill="#20263B"></path>
                        <path d="M35.950125,59.999625 L20.1028125,59.999625 L20.1028125,54.374625 L35.950125,54.374625 C38.0401875,54.374625 39.740625,52.587375 39.740625,50.39025 L39.7543125,15.3954375 L45.3793125,15.3976875 L45.365625,50.391375 C45.365625,55.689 41.142,59.999625 35.950125,59.999625 L35.950125,59.999625 Z" id="路径" fill="#20263B"></path>
                        <path d="M30.1875,36.5625 L24.5625,36.5625 C24.5625,36.0455625 24.1419375,35.625 23.625,35.625 L13.8015,35.625 L13.8015,30 L23.625,30 C27.2435625,30 30.1875,32.9439375 30.1875,36.5625 Z" id="路径" fill="#20263B"></path>
                        <path d="M5.625,36.5625 L0,36.5625 C0,32.9439375 2.9439375,30 6.5625,30 L16.386,30 L16.386,35.625 L6.5625,35.625 C6.0455625,35.625 5.625,36.0455625 5.625,36.5625 Z" id="路径" fill="#20263B"></path>
                        <path d="M26.740125,11.625 L37.125,11.625 L37.125,17.25 L26.740125,17.25 L26.740125,11.625 Z M20.6176875,20.625 L37.125,20.625 L37.125,26.25 L20.6176875,26.25 L20.6176875,20.625 Z" id="形状" fill="#FF4B07"></path>
                    </g>
                </g>
            </g>
        </g>
    </g>
</svg>