<?xml version="1.0" encoding="UTF-8"?>
<svg width="60px" height="60px" viewBox="0 0 60 60" version="1.1" xmlns="http://www.w3.org/2000/svg" xmlns:xlink="http://www.w3.org/1999/xlink">
    <title>编组</title>
    <g id="页面-1" stroke="none" stroke-width="1" fill="none" fill-rule="evenodd">
        <g id="5学习-首页" transform="translate(-264.000000, -274.000000)" fill-rule="nonzero">
            <g id="编组-7" transform="translate(40.000000, 239.000000)">
                <g id="编组-6" transform="translate(206.000000, 35.000000)">
                    <g id="编组" transform="translate(18.000000, 0.000000)">
                        <path d="M54.21875,23.4895833 L46.1458333,23.4895833 C43.0892857,23.4895833 40.6026786,21.0029762 40.6026786,17.9464286 L40.6026786,9.81770833 C40.6026786,4.53552827 44.9001116,0.238095238 50.1822917,0.238095238 C55.4644717,0.238095238 59.7619048,4.53552827 59.7619048,9.81770833 L59.7619048,17.9464286 C59.7619048,21.0029762 57.2752976,23.4895833 54.21875,23.4895833 Z M46.1830357,17.9092262 L54.1815476,17.9092262 L54.1815476,9.81770833 C54.1815476,7.6125372 52.3874628,5.81845238 50.1822917,5.81845238 C47.9771205,5.81845238 46.1830357,7.6125372 46.1830357,9.81770833 L46.1830357,17.9092262 Z" id="形状" fill="#20263B"></path>
                        <path d="M43.3926711,59.7619048 C43.0589658,59.7619048 42.7237723,59.7021949 42.4032738,59.5803571 L22.5922619,52.0651042 L4.06510417,59.5582217 C3.20552971,59.9059642 2.22935594,59.8039337 1.46026668,59.2859619 C0.691177413,58.7679901 0.229678104,57.9017662 0.228794643,56.9745164 C0.225074405,53.5924479 0.225818452,53.1971726 0.227120536,52.5892857 C0.227864583,52.1932664 0.228794643,51.7066592 0.228794643,50.2379092 L0.228794643,9.85639881 C0.198474702,9.0969122 0.20610119,5.61160714 2.6687128,2.97600446 C3.83333333,1.72953869 5.99181548,0.240513393 9.66164435,0.225074405 C16.6729911,0.19624256 49.8852307,0.237723214 50.2200521,0.238095238 L50.2127976,5.81845238 C49.8781622,5.81789435 16.6809896,5.77566964 9.68508185,5.80543155 C8.31863839,5.8110119 7.35732887,6.13169643 6.74646577,6.78571429 C5.7734375,7.82700893 5.80264137,9.59561012 5.80375744,9.61272321 C5.80747768,9.671875 5.8093378,9.7312128 5.8093378,9.7905506 L5.8093378,50.2380952 C5.8093378,51.7135417 5.80840774,52.202381 5.80766369,52.6000744 L5.80729167,52.8344494 L21.5137649,46.4821429 C22.1652853,46.2184146 22.8923782,46.2105085 23.5494792,46.4600074 L40.5904018,52.9244792 C40.5889137,52.0997024 40.5879836,51.1912202 40.5879836,50.2382813 C40.5883557,49.9482887 40.6155134,21.3857887 40.6155134,9.72488839 L46.1958705,9.72488839 C46.1958705,21.3883929 46.1687128,49.953869 46.1683408,50.2408854 C46.1683408,53.9109003 46.1830357,56.9280134 46.1832217,56.9579613 C46.1867351,57.7003641 45.8942892,58.4135681 45.3705835,58.9397872 C44.8468779,59.4660063 44.1350822,59.7619048 43.3926711,59.7619048 Z" id="路径" fill="#20263B"></path>
                        <path d="M21.0498512,36.6560665 C20.3448661,36.6560665 19.6393229,36.390439 19.0963542,35.8578869 C17.9962798,34.7788318 17.9791667,33.0122768 19.0580357,31.9122024 L30.265253,20.4853051 C31.344308,19.3852307 33.1110491,19.3679315 34.2109375,20.4469866 C35.3111979,21.5260417 35.328311,23.2925967 34.249256,24.3926711 L23.0420387,35.8193824 C22.5178802,36.3553754 21.7995375,36.6570659 21.0498512,36.6560665 L21.0498512,36.6560665 Z" id="路径" fill="#FF4B07"></path>
                        <path d="M21.0507813,36.6542066 C20.3376755,36.6551072 19.6514918,36.381939 19.1341146,35.891183 L14.1069568,31.1374628 C12.9873512,30.078683 12.937872,28.312686 13.9966518,27.1930804 C15.0552455,26.0732887 16.8214286,26.0239955 17.9410342,27.0827753 L22.968192,31.8366815 C24.0877976,32.8952753 24.1372768,34.6614583 23.078497,35.780878 C22.5520057,36.339242 21.8182201,36.6552794 21.0507813,36.6542066 L21.0507813,36.6542066 Z" id="路径" fill="#FF4B07"></path>
                    </g>
                </g>
            </g>
        </g>
    </g>
</svg>