<?xml version="1.0" encoding="UTF-8"?>
<svg width="60px" height="60px" viewBox="0 0 60 60" version="1.1" xmlns="http://www.w3.org/2000/svg" xmlns:xlink="http://www.w3.org/1999/xlink">
    <title>编组</title>
    <g id="页面-1" stroke="none" stroke-width="1" fill="none" fill-rule="evenodd">
        <g id="5学习-首页" transform="translate(-110.000000, -274.000000)" fill-rule="nonzero">
            <g id="编组-7" transform="translate(40.000000, 239.000000)">
                <g id="编组-4" transform="translate(52.000000, 35.000000)">
                    <g id="编组" transform="translate(18.000000, 0.000000)">
                        <path d="M52.5,60 L7.5,60 C3.3645,60 0,56.6355 0,52.5 L0,12.1875 C0,8.052 3.3645,4.6875 7.5,4.6875 L52.5,4.6875 C56.6355,4.6875 60,8.052 60,12.1875 L60,52.5 C60,56.6355 56.6355,60 52.5,60 Z M7.5,10.3125 C6.466125,10.3125 5.625,11.153625 5.625,12.1875 L5.625,52.5 C5.625,53.533875 6.466125,54.375 7.5,54.375 L52.5,54.375 C53.533875,54.375 54.375,53.533875 54.375,52.5 L54.375,12.1875 C54.375,11.153625 53.533875,10.3125 52.5,10.3125 L7.5,10.3125 Z" id="形状" fill="#20263B"></path>
                        <path d="M13.875,0 L19.5,0 L19.5,14.0625 L13.875,14.0625 L13.875,0 Z M40.5,0 L46.125,0 L46.125,14.0625 L40.5,14.0625 L40.5,0 Z M-0.0031875,21.375 L59.9968125,21.375 L59.9968125,27 L-0.0031875,27 L-0.0031875,21.375 Z" id="形状" fill="#20263B"></path>
                        <path d="M14.0173125,43.125 L45.982875,43.125 L45.982875,48.75 L14.0173125,48.75 L14.0173125,43.125 Z M14.0173125,31.875 L27.982875,31.875 L27.982875,37.5 L14.0173125,37.5 L14.0173125,31.875 Z" id="形状" fill="#FF4B07"></path>
                    </g>
                </g>
            </g>
        </g>
    </g>
</svg>