<?xml version="1.0" encoding="UTF-8"?>
<svg width="34px" height="38px" viewBox="0 0 34 38" version="1.1" xmlns="http://www.w3.org/2000/svg" xmlns:xlink="http://www.w3.org/1999/xlink">
    <title>编组</title>
    <g id="页面-1" stroke="none" stroke-width="1" fill="none" fill-rule="evenodd">
        <g id="5.5学习-首页-我的课程-学习资料" transform="translate(-39.000000, -181.000000)" fill-rule="nonzero">
            <g id="编组-3" transform="translate(0.000000, 153.000000)">
                <g id="编组" transform="translate(39.000000, 28.000000)">
                    <path d="M34,10.45 L34,33.7777778 C34,36.1096467 32.0972102,38 29.75,38 L4.24999998,38 C1.9027898,38 0,36.1096467 0,33.7777778 L0,4.22222224 C0,1.8903533 1.9027898,0 4.24999998,0 L23.48125,0 L34,10.45 Z" id="路径" fill="#ED5050"></path>
                    <path d="M24,7.97979797 L24,0 L34,10 L26.020202,10 C24.9044752,10 24,9.09552473 24,7.97979797 L24,7.97979797 Z" id="路径" fill="#D43030"></path>
                    <path d="M22.8111498,22.3051724 C21.9352114,22.3204345 21.0628089,22.4215074 20.206216,22.606969 C19.164651,21.6399124 18.2913154,20.5031495 17.6226341,19.2440922 C18.3379233,16.9051683 18.3699512,15.3099575 17.8361533,14.5554659 C17.5820468,14.2173218 17.1888739,14.0148785 16.7685574,14.0057649 C16.2433372,13.9568458 15.7382615,14.2223437 15.4767665,14.6848073 C14.7294494,15.9351077 15.8077212,18.4141515 16.3094913,19.4165475 C15.741137,21.2147359 15.0047416,22.9542998 14.1102439,24.611761 C10.1174355,26.3363132 10,27.381823 10,27.7590687 C10.0138471,28.2240433 10.2865896,28.6412567 10.7046133,28.8369139 C10.8897999,28.9534259 11.1059018,29.0098509 11.3238188,28.9985906 C12.3914146,28.9985906 13.56577,27.8237395 14.857561,25.5279293 C16.4509158,24.8478466 18.1016749,24.3139552 19.7898536,23.9327186 C20.6559948,24.672226 21.7329536,25.1139408 22.8645296,25.1937973 C23.5691428,25.1937973 24.9997212,25.1937973 24.9997212,23.7602633 C25.0103971,23.275233 24.7221462,22.3482862 22.8111498,22.3051724 L22.8111498,22.3051724 Z M11.3985505,27.8021826 L11.270439,27.8021826 C11.6334975,27.2513771 12.1551743,26.826267 12.7650732,26.5842175 C12.4603605,27.135571 11.9782309,27.5652872 11.3985505,27.8021826 L11.3985505,27.8021826 Z M16.5016585,15.3099575 C16.5569208,15.2902317 16.6172115,15.2902317 16.6724739,15.3099575 L16.8005853,15.3099575 C17.0200582,16.011439 17.0200582,16.7641662 16.8005853,17.4656478 C16.4693107,16.7996792 16.3642678,16.0421692 16.5016585,15.3099575 L16.5016585,15.3099575 Z M18.6368501,23.4369098 C17.6786735,23.6623539 16.7340818,23.9430539 15.8077212,24.277629 L15.8077212,24.1914014 L15.7223136,24.1914014 C16.1813798,23.275233 16.5977421,22.3051724 16.9714006,21.3458902 L16.9714006,21.2596626 C17.4522831,21.9975526 18.0067683,22.6837693 18.6261742,23.3075684 L18.5087386,23.3075684 L18.6368501,23.4369098 Z M22.9072334,23.9866108 C22.4740782,23.970116 22.0473806,23.8751953 21.6474703,23.7063711 C21.9989029,23.6365369 22.3571064,23.6076055 22.7150661,23.6201434 C23.5371149,23.6201434 23.7079302,23.824934 23.7079302,23.9542755 C23.4434775,24.0275353 23.1659071,24.0385972 22.8965574,23.9866108 L22.9072334,23.9866108 Z" id="形状" fill="#FFFFFF"></path>
                </g>
            </g>
        </g>
    </g>
</svg>