<?xml version="1.0" encoding="UTF-8"?>
<svg width="24px" height="23px" viewBox="0 0 24 23" version="1.1" xmlns="http://www.w3.org/2000/svg" xmlns:xlink="http://www.w3.org/1999/xlink">
    <title>编组</title>
    <g id="页面-1" stroke="none" stroke-width="1" fill="none" fill-rule="evenodd">
        <g id="5学习-首页" transform="translate(-623.000000, -492.000000)" fill="#979EA7" fill-rule="nonzero">
            <g id="编组" transform="translate(623.000000, 492.000000)">
                <path d="M17.8637123,0 C18.2045892,0 18.5359726,0.112295559 18.8066002,0.31955819 C19.4857759,0.839762931 19.6142511,1.81158405 19.0935075,2.49008621 L12.6105065,10.9372845 L12.6105065,20.8328933 C12.6105068,21.0159115 12.5677779,21.1964022 12.485722,21.3599946 L12.4717134,21.3870959 C12.1653017,21.9602909 11.4518319,22.1768588 10.8780442,21.8707705 L7.99892241,20.3348599 C7.29251078,19.9580011 6.85134698,19.2230065 6.85134698,18.4229526 L6.85134698,10.9702856 L0.321470905,2.4921875 C0.119517644,2.23001371 0.00694916006,1.90999328 0.000296336207,1.57912177 L0,1.54814116 C0,0.693130388 0.693803879,0 1.54962284,0 L17.8637123,0 Z M23.0627155,18.7014278 C23.5077586,18.7014278 23.8685345,19.0618804 23.8685345,19.5064655 C23.8685345,19.9447198 23.5179957,20.3011853 23.0817349,20.3112608 L23.0627155,20.3114763 L15.3763739,20.3114763 C14.9313308,20.3114763 14.5705819,19.9510776 14.5705819,19.5064655 C14.5705819,19.0682112 14.9211207,18.7117457 15.3573545,18.7016433 L15.3763739,18.7014278 L23.0627155,18.7014278 L23.0627155,18.7014278 Z M17.7380927,1.60999461 L1.67545797,1.60999461 L8.46293103,10.4225485 L8.46293103,18.4229795 C8.46298277,18.6287832 8.57646324,18.8178034 8.7580819,18.9146013 L10.9989224,20.1099946 L10.9989224,10.3912446 L17.7380927,1.60999461 Z M23.0627155,14.3666756 C23.5077586,14.3666756 23.8685345,14.7270744 23.8685345,15.1716864 C23.8685345,15.6099407 23.5179957,15.9664062 23.0817349,15.9765086 L23.0627155,15.9767241 L15.3763739,15.9767241 C14.9313308,15.9767241 14.5705819,15.6162716 14.5705819,15.1716864 C14.5705819,14.7334321 14.9211207,14.3769666 15.3573545,14.3668912 L15.3763739,14.3666756 L23.0627155,14.3666756 L23.0627155,14.3666756 Z M23.0627155,10.0318966 C23.5077586,10.0318966 23.8685345,10.3923222 23.8685345,10.8369343 C23.8685345,11.2751886 23.5179957,11.6316541 23.0817349,11.6417295 L23.0627155,11.641945 L15.3763739,11.641945 C14.9313308,11.641945 14.5705819,11.2815194 14.5705819,10.8369343 C14.5705819,10.39868 14.9211207,10.0422144 15.3573545,10.0321121 L15.3763739,10.0318966 L23.0627155,10.0318966 L23.0627155,10.0318966 Z" id="形状"></path>
            </g>
        </g>
    </g>
</svg>