<?xml version="1.0" encoding="UTF-8"?>
<svg width="44px" height="44px" viewBox="0 0 44 44" version="1.1" xmlns="http://www.w3.org/2000/svg" xmlns:xlink="http://www.w3.org/1999/xlink">
    <!-- Generator: Sketch 63.1 (92452) - https://sketch.com -->
    <title>完成率_icon_第三</title>
    <desc>Created with Sketch.</desc>
    <g id="Page-2" stroke="none" stroke-width="1" fill="none" fill-rule="evenodd">
        <g id="1.0首页" transform="translate(-31.000000, -1426.000000)" fill="#599CFF">
            <g id="分组-9" transform="translate(-2.000000, 1144.000000)">
                <g id="分组-8" transform="translate(0.000000, 260.000000)">
                    <g id="完成率_icon_第三" transform="translate(33.000000, 22.000000)">
                        <path d="M24.8580034,32.7337785 C25.6085176,32.7337785 26.2180101,32.1442215 26.2180101,31.4152834 C26.2180101,30.6860586 25.6085176,30.0965733 24.8580034,30.0965733 L19.0703395,30.0965733 C18.320121,30.0965733 17.7106286,30.6860586 17.7106286,31.4152834 C17.7106286,32.1442215 18.320121,32.7337785 19.0703395,32.7337785 L24.8580034,32.7337785 Z" id="Fill-1"></path>
                        <path d="M24.5044504,33.4646515 L19.4238924,33.4646515 C19.4238924,33.4646515 17.391758,41.3415114 13.3274151,41.3415114 L13.3274151,44 L30.6007059,44 L30.6007059,41.3415114 C26.5374723,41.3415114 24.5044504,33.4646515 24.5044504,33.4646515 Z" id="Fill-2"></path>
                        <path d="M34.6531429,0.0386254072 C34.6531429,0.0386254072 34.711563,0.370560261 34.7898017,0.961765472 L34.7898017,0.961765472 L43.7807395,0.961765472 C43.7807395,0.961765472 46.1936403,21.6777394 31.5134655,23.663544 C29.9943193,26.1017459 27.894595,28.1583518 24.993479,29.4381498 L24.993479,29.4381498 L18.9339765,29.4381498 C16.0337479,28.1583518 13.9351328,26.1017459 12.4148773,23.663544 C-2.26618487,21.6777394 0.14789916,0.961765472 0.14789916,0.961765472 L0.14789916,0.961765472 L9.13854118,0.961765472 C9.21685378,0.370560261 9.27608739,0.0386254072 9.27608739,0.0386254072 L9.27608739,0.0386254072 Z M21.668,4.278 C20.036,4.278 18.716,4.734 17.708,5.67 C16.652,6.606 16.028,7.902 15.884,9.558 L17.828,9.558 C17.948,8.406 18.332,7.518 19.004,6.894 C19.652,6.27 20.54,5.982 21.692,5.982 C22.796,5.982 23.684,6.246 24.308,6.822 C24.884,7.35 25.196,8.094 25.196,9.054 C25.196,10.014 24.884,10.758 24.284,11.286 C23.684,11.79 22.82,12.054 21.668,12.054 L20.348,12.054 L20.348,13.59 L21.74,13.59 C22.94,13.59 23.852,13.854 24.524,14.43 C25.196,15.006 25.532,15.798 25.532,16.83 C25.532,17.838 25.172,18.678 24.5,19.35 C23.756,20.046 22.772,20.406 21.548,20.406 C20.468,20.406 19.58,20.094 18.86,19.518 C18.02,18.822 17.564,17.79 17.516,16.446 L15.524,16.446 C15.668,18.366 16.34,19.83 17.564,20.838 C18.596,21.654 19.916,22.086 21.548,22.086 C23.324,22.086 24.764,21.582 25.868,20.574 C26.948,19.59 27.5,18.318 27.5,16.758 C27.5,15.75 27.212,14.91 26.636,14.238 C26.108,13.566 25.34,13.086 24.332,12.774 C26.204,12.15 27.14,10.854 27.14,8.934 C27.14,7.494 26.636,6.366 25.652,5.526 C24.644,4.686 23.3,4.278 21.668,4.278 Z M8.87742521,3.46682736 L2.03302185,3.46682736 C1.53852101,16.5212117 8.3424,20.456202 11.2781983,21.5400782 C8.46841008,15.4250814 8.53193277,7.80039739 8.87742521,3.46682736 L8.87742521,3.46682736 Z M41.895321,3.46682736 L35.0512134,3.46682736 C35.3964101,7.80068404 35.4600067,15.4250814 32.6502185,21.5400782 C35.5847597,20.456202 42.3898958,16.5212117 41.895321,3.46682736 L41.895321,3.46682736 Z" id="形状结合"></path>
                    </g>
                </g>
            </g>
        </g>
    </g>
</svg>