<?xml version="1.0" encoding="UTF-8"?>
<svg width="48px" height="48px" viewBox="0 0 48 48" version="1.1" xmlns="http://www.w3.org/2000/svg" xmlns:xlink="http://www.w3.org/1999/xlink">
    <!-- Generator: Sketch 63.1 (92452) - https://sketch.com -->
    <title>通用_工作台_默认</title>
    <desc>Created with Sketch.</desc>
    <g id="Page-2" stroke="none" stroke-width="1" fill="none" fill-rule="evenodd">
        <g id="1.1分类新闻" transform="translate(-101.000000, -1724.000000)">
            <g id="标签栏" transform="translate(0.000000, 1710.000000)">
                <g id="区域">
                    <rect id="Item-Dimension" fill-opacity="0" fill="#4A90E2" x="0" y="0" width="250" height="98"></rect>
                    <path d="M148.355397,30.8535125 C148.335881,30.6499469 148.283498,30.4508904 148.200285,30.264087 L148.045173,30.0159078 L147.828016,29.798751 L126.112338,14.2875521 C125.573844,13.9041493 124.851532,13.9041493 124.313039,14.2875521 L102.59736,29.798751 L102.163047,30.0469302 L102.007935,30.2951094 C102.00117,30.3776975 102.00117,30.4607004 102.007935,30.5432885 C101.997355,30.6464259 101.997355,30.7503751 102.007935,30.8535125 L102.007935,60.4488801 C102.007935,61.30554 102.702395,62 103.559054,62 L119.070253,62 C119.853515,61.9053454 120.440938,61.2378195 120.435239,60.4488801 L120.435239,49.5910408 C120.435239,47.0210612 122.518619,44.9376812 125.088599,44.9376812 C127.658578,44.9376812 129.741958,47.0210612 129.741958,49.5910408 L129.741958,60.4488801 C129.741958,61.30554 130.436418,62 131.293078,62 L146.804277,62 C147.660937,62 148.355397,61.30554 148.355397,60.4488801 L148.355397,30.9776021 L148.355397,30.8535125 Z M132.844198,58.7736706 L132.844198,49.4669513 C132.844198,45.183652 129.371898,41.7113518 125.088599,41.7113518 C120.805299,41.7113518 117.332999,45.183652 117.332999,49.4669513 L117.332999,58.7736706 L104.92404,58.7736706 L104.92404,31.7841845 L125.088599,17.3587695 L145.253157,31.7841845 L145.253157,58.8977602 L132.844198,58.7736706 Z" id="形状" fill="#666666" fill-rule="nonzero"></path>
                </g>
            </g>
        </g>
    </g>
</svg>