<?xml version="1.0" encoding="UTF-8"?>
<svg width="40px" height="40px" viewBox="0 0 40 40" version="1.1" xmlns="http://www.w3.org/2000/svg" xmlns:xlink="http://www.w3.org/1999/xlink">
    <!-- Generator: Sketch 63.1 (92452) - https://sketch.com -->
    <title>密码</title>
    <desc>Created with Sketch.</desc>
    <g id="Page-2" stroke="none" stroke-width="1" fill="none" fill-rule="evenodd">
        <g id="0登录" transform="translate(-79.000000, -696.000000)" fill="#CCCCCC" fill-rule="nonzero">
            <g id="分组" transform="translate(55.000000, 676.000000)">
                <g id="编组-2" transform="translate(24.000000, 20.000000)">
                    <path d="M33.006993,14.1258741 L6.57342657,14.1258741 C4.9534528,14.1258741 3.63636364,15.4383741 3.63636364,17.0629371 L3.63636364,33.2167832 C3.63636364,36.4613199 6.2659528,39.0909091 9.51048951,39.0909091 L30.0699301,39.0909091 C33.3144668,39.0909091 35.9440559,36.4613199 35.9440559,33.2167832 L35.9440559,17.0629371 C35.9440559,15.4383741 34.6269668,14.1258741 33.006993,14.1258741 Z M21.2587413,29.5454545 C21.2587413,30.357736 20.6024913,31.013986 19.7902098,31.013986 C18.9779283,31.013986 18.3216783,30.357736 18.3216783,29.5454545 L18.3216783,23.6713287 C18.3216783,22.8590472 18.9779283,22.2027972 19.7902098,22.2027972 C20.1940559,22.2027972 20.5611888,22.368007 20.8273601,22.6341783 C21.0935315,22.9003497 21.2587413,23.2674825 21.2587413,23.6713287 L21.2587413,29.5454545 Z M19.7902098,3.84615385 C21.7497815,3.84615385 23.5946241,4.60795455 24.9805507,5.99847028 C26.3710664,7.38439685 27.1328671,9.22923951 27.1328671,11.1888112 L27.1328671,14.1258741 L12.4475524,14.1258741 L12.4475524,11.1888112 C12.4475524,9.22923951 13.2093531,7.38439685 14.5998689,5.99847028 C15.9903846,4.61254371 17.8306381,3.84615385 19.7902098,3.84615385 L19.7902098,3.84615385 Z M19.7902098,0.909090909 C14.1134178,0.909090909 9.51048951,5.51201923 9.51048951,11.1888112 L9.51048951,17.0629371 L30.0699301,17.0629371 L30.0699301,11.1888112 C30.0699301,5.51201923 25.4670017,0.909090909 19.7902098,0.909090909 Z" id="形状"></path>
                </g>
            </g>
        </g>
    </g>
</svg>