<?xml version="1.0" encoding="UTF-8"?>
<svg width="48px" height="48px" viewBox="0 0 48 48" version="1.1" xmlns="http://www.w3.org/2000/svg" xmlns:xlink="http://www.w3.org/1999/xlink">
    <!-- Generator: Sketch 63.1 (92452) - https://sketch.com -->
    <title>通用_我的_高亮</title>
    <desc>Created with Sketch.</desc>
    <g id="Page-2" stroke="none" stroke-width="1" fill="none" fill-rule="evenodd">
        <g id="1.0首页" transform="translate(-601.000000, -1530.000000)">
            <g id="标签栏" transform="translate(0.000000, 1516.000000)">
                <g id="我的" transform="translate(500.000000, 0.000000)">
                    <rect id="Item-Dimension" fill-opacity="0" fill="#000000" x="0" y="0" width="250" height="98"></rect>
                    <path d="M135.501491,41.1807229 C141.499596,41.1811322 146.687371,45.359852 147.965298,51.220241 L148.939178,55.6859759 C149.274878,57.2250233 148.895507,58.8333026 147.907389,60.06008 C146.91927,61.2868573 145.428725,62 143.853491,62 L106.205298,62 C104.630065,62 103.13952,61.2868573 102.151401,60.06008 C101.163282,58.8333026 100.783912,57.2250233 101.119612,55.6859759 L102.093491,51.2213976 C103.37095,45.3605489 108.558845,41.1812508 114.557298,41.1807229 L135.501491,41.1807229 L135.501491,41.1807229 Z M125.029395,14 C132.055901,14 137.752286,19.6963856 137.752286,26.7228916 C137.752286,33.7493976 132.055901,39.4457831 125.029395,39.4457831 C118.002889,39.4457831 112.306503,33.7493976 112.306503,26.7228916 C112.306503,19.6963856 118.002889,14 125.029395,14 Z" id="形状" fill="#D81F13" fill-rule="nonzero"></path>
                </g>
            </g>
        </g>
    </g>
</svg>