<?xml version="1.0" encoding="UTF-8"?>
<svg width="48px" height="48px" viewBox="0 0 48 48" version="1.1" xmlns="http://www.w3.org/2000/svg" xmlns:xlink="http://www.w3.org/1999/xlink">
    <!-- Generator: Sketch 63.1 (92452) - https://sketch.com -->
    <title>通用_待办_高亮</title>
    <desc>Created with Sketch.</desc>
    <g id="Page-2" stroke="none" stroke-width="1" fill="none" fill-rule="evenodd">
        <g id="1.0首页" transform="translate(-351.000000, -1530.000000)">
            <g id="标签栏" transform="translate(0.000000, 1516.000000)">
                <g id="待办" transform="translate(250.000000, 0.000000)">
                    <rect id="Item-Dimension" fill-opacity="0" fill="#4A90E2" x="0" y="0" width="250" height="98"></rect>
                    <path d="M142,14 C144.209139,14 146,15.790861 146,18 L146,58 C146,60.209139 144.209139,62 142,62 L108,62 C105.790861,62 104,60.209139 104,58 L104,18 C104,15.790861 105.790861,14 108,14 L142,14 Z M134.5,47 L115.5,47 C114.671573,47 114,47.6715729 114,48.5 C114,49.3284271 114.671573,50 115.5,50 L115.5,50 L134.5,50 C135.328427,50 136,49.3284271 136,48.5 C136,47.6715729 135.328427,47 134.5,47 L134.5,47 Z M130.5,37 L115.5,37 C114.671573,37 114,37.6715729 114,38.5 C114,39.3284271 114.671573,40 115.5,40 L115.5,40 L130.5,40 C131.328427,40 132,39.3284271 132,38.5 C132,37.6715729 131.328427,37 130.5,37 L130.5,37 Z M126.5,27 L115.5,27 C114.671573,27 114,27.6715729 114,28.5 C114,29.3284271 114.671573,30 115.5,30 L115.5,30 L126.5,30 C127.328427,30 128,29.3284271 128,28.5 C128,27.6715729 127.328427,27 126.5,27 L126.5,27 Z" id="合并形状" fill="#D81F13"></path>
                </g>
            </g>
        </g>
    </g>
</svg>