<?xml version="1.0" encoding="UTF-8"?>
<svg width="40px" height="40px" viewBox="0 0 40 40" version="1.1" xmlns="http://www.w3.org/2000/svg" xmlns:xlink="http://www.w3.org/1999/xlink">
    <!-- Generator: Sketch 63.1 (92452) - https://sketch.com -->
    <title>账号</title>
    <desc>Created with Sketch.</desc>
    <g id="Page-2" stroke="none" stroke-width="1" fill="none" fill-rule="evenodd">
        <g id="0登录" transform="translate(-79.000000, -576.000000)" fill="#CCCCCC" fill-rule="nonzero">
            <g id="分组-2" transform="translate(55.000000, 556.000000)">
                <g id="编组" transform="translate(24.000000, 20.000000)">
                    <path d="M13.2289918,17.4121062 C16.1485916,20.3315458 20.5393032,21.2048645 24.3538496,19.6248561 C28.168396,18.0448476 30.6557812,14.3226477 30.6557812,10.1938232 C30.6557812,6.06499883 28.1690259,2.34259938 24.3546063,0.762284823 C21.9004352,-0.254094941 18.9958296,-0.254094941 16.5416585,0.762284823 C13.3922894,2.06754357 11.102149,4.85853061 10.4369023,8.20213242 C9.77165567,11.5457342 10.8190811,15.000767 13.2289918,17.4121062 Z M28.6273484,22.7366359 L12.2677555,22.7366359 C7.50801014,22.7366359 3.63636364,26.6088628 3.63636364,31.3686082 C3.63636364,36.1283535 7.50859059,40 12.2677555,40 L28.6279289,40 C33.3876742,40 37.2599012,36.1283535 37.2599012,31.3686082 C37.2599012,26.6088628 33.3882547,22.7366359 28.6279289,22.7366359 L28.6273484,22.7366359 Z" id="形状"></path>
                </g>
            </g>
        </g>
    </g>
</svg>