<?xml version="1.0" encoding="UTF-8"?>
<svg width="44px" height="44px" viewBox="0 0 44 44" version="1.1" xmlns="http://www.w3.org/2000/svg" xmlns:xlink="http://www.w3.org/1999/xlink">
    <!-- Generator: Sketch 63.1 (92452) - https://sketch.com -->
    <title>完成率_icon_第一</title>
    <desc>Created with Sketch.</desc>
    <g id="Page-2" stroke="none" stroke-width="1" fill="none" fill-rule="evenodd">
        <g id="1.0首页" transform="translate(-32.000000, -1250.000000)" fill="#FF5A5A">
            <g id="分组-9" transform="translate(-2.000000, 1144.000000)">
                <g id="分组-8" transform="translate(0.000000, 84.000000)">
                    <g id="完成率_icon_第一" transform="translate(34.000000, 22.000000)">
                        <path d="M24.8580034,32.7337785 C25.6085176,32.7337785 26.2180101,32.1442215 26.2180101,31.4152834 C26.2180101,30.6860586 25.6085176,30.0965733 24.8580034,30.0965733 L19.0703395,30.0965733 C18.320121,30.0965733 17.7106286,30.6860586 17.7106286,31.4152834 C17.7106286,32.1442215 18.320121,32.7337785 19.0703395,32.7337785 L24.8580034,32.7337785 Z" id="Fill-1"></path>
                        <path d="M24.5044504,33.4646515 L19.4238924,33.4646515 C19.4238924,33.4646515 17.391758,41.3415114 13.3274151,41.3415114 L13.3274151,44 L30.6007059,44 L30.6007059,41.3415114 C26.5374723,41.3415114 24.5044504,33.4646515 24.5044504,33.4646515 Z" id="Fill-2"></path>
                        <path d="M34.6531429,0.0386254072 C34.6531429,0.0386254072 34.711563,0.370560261 34.7898017,0.961765472 L34.7898017,0.961765472 L43.7807395,0.961765472 C43.7807395,0.961765472 46.1936403,21.6777394 31.5134655,23.663544 C29.9943193,26.1017459 27.894595,28.1583518 24.993479,29.4381498 L24.993479,29.4381498 L18.9339765,29.4381498 C16.0337479,28.1583518 13.9351328,26.1017459 12.4148773,23.663544 C-2.26618487,21.6777394 0.14789916,0.961765472 0.14789916,0.961765472 L0.14789916,0.961765472 L9.13854118,0.961765472 C9.21685378,0.370560261 9.27608739,0.0386254072 9.27608739,0.0386254072 L9.27608739,0.0386254072 Z M23.056,5.864 L21.52,5.864 C20.944,6.512 20.272,7.088 19.456,7.616 C18.64,8.096 17.824,8.432 17.056,8.648 L17.056,10.616 C18.664,10.136 20.008,9.368 21.088,8.264 L21.088,23 L23.056,23 L23.056,5.864 Z M8.87742521,3.46682736 L2.03302185,3.46682736 C1.53852101,16.5212117 8.3424,20.456202 11.2781983,21.5400782 C8.46841008,15.4250814 8.53193277,7.80039739 8.87742521,3.46682736 L8.87742521,3.46682736 Z M41.895321,3.46682736 L35.0512134,3.46682736 C35.3964101,7.80068404 35.4600067,15.4250814 32.6502185,21.5400782 C35.5847597,20.456202 42.3898958,16.5212117 41.895321,3.46682736 L41.895321,3.46682736 Z" id="形状结合"></path>
                    </g>
                </g>
            </g>
        </g>
    </g>
</svg>