<?xml version="1.0" encoding="UTF-8"?>
<svg width="40px" height="40px" viewBox="0 0 40 40" version="1.1" xmlns="http://www.w3.org/2000/svg" xmlns:xlink="http://www.w3.org/1999/xlink">
    <!-- Generator: Sketch 63.1 (92452) - https://sketch.com -->
    <title>验证码</title>
    <desc>Created with Sketch.</desc>
    <g id="Page-2" stroke="none" stroke-width="1" fill="none" fill-rule="evenodd">
        <g id="0登录" transform="translate(-79.000000, -816.000000)" fill="#CCCCCC" fill-rule="nonzero">
            <g id="分组" transform="translate(55.000000, 796.000000)">
                <g id="验证码2" transform="translate(24.000000, 20.000000)">
                    <path d="M36.8846421,4.69770674 C28.9624739,4.69770674 21.0958999,0.194579569 21.0125087,0.138985407 C20.8457262,0.0555941626 20.6789437,0 20.5121612,0 C20.3453787,0 20.1507992,0.0555941626 20.0118138,0.138985407 C19.9284225,0.194579569 11.8672689,4.69770674 4.02849201,4.69770674 C3.47255038,4.69770674 3,5.17025712 3,5.72619875 L3,20.0694927 C3,26.4350243 6.00208478,31.9110493 11.6726894,35.886032 C15.8978457,38.8603197 20.0674079,39.9444058 20.2341904,39.9722029 C20.3175817,40 20.4009729,40 20.4843641,40 C20.5677554,40 20.6511466,40 20.7345379,39.9722029 C20.9013204,39.9166088 25.0430855,38.8325226 29.2682418,35.8304378 C34.9110493,31.8276581 37.885337,26.3794302 37.885337,20.0416956 L37.885337,5.72619875 C37.9131341,5.17025712 37.4405837,4.69770674 36.8846421,4.69770674 Z M30.5191105,16.400278 L20.1507992,26.7685893 C19.8728284,27.0465601 19.5114663,27.1855455 19.1501042,27.1855455 C18.7609451,27.1855455 18.399583,27.0465601 18.1494093,26.7685893 L11.7282835,20.3474635 C11.1723419,19.7915219 11.1723419,18.9020153 11.7560806,18.3460737 C12.0207059,18.0792163 12.3809572,17.9291083 12.7567755,17.9291083 C13.1325939,17.9291083 13.4928451,18.0792163 13.7574705,18.3460737 L19.1779013,23.7665045 L28.5177206,14.3988881 C29.0736623,13.8429465 29.9631689,13.8429465 30.5191105,14.4266852 C31.0472628,14.9785455 31.0472628,15.8484177 30.5191105,16.400278 L30.5191105,16.400278 Z" id="形状"></path>
                </g>
            </g>
        </g>
    </g>
</svg>