<?xml version="1.0" encoding="UTF-8"?>
<svg width="22px" height="24px" viewBox="0 0 22 24" version="1.1" xmlns="http://www.w3.org/2000/svg" xmlns:xlink="http://www.w3.org/1999/xlink">
    <title>编组</title>
    <g id="页面-1" stroke="none" stroke-width="1" fill="none" fill-rule="evenodd">
        <g id="3.2首页" transform="translate(-73.000000, -1435.000000)" fill="#999FA6" fill-rule="nonzero">
            <g id="校区卡片" transform="translate(40.000000, 1320.000000)">
                <g id="编组-8" transform="translate(32.000000, 31.000000)">
                    <g id="编组-2" transform="translate(1.941889, 81.000000)">
                        <g id="编组" transform="translate(0.058111, 3.000000)">
                            <path d="M9.70944636,23.1431803 L9.16306934,23.8160468 C9.48353665,24.0613177 9.93535608,24.0613177 10.2558234,23.8160468 L9.70944636,23.1431803 Z M12.3574772,9.42870309 C12.3574772,10.8488837 11.1719134,12.0001676 9.70944636,12.0001676 L9.70944636,13.7144772 C12.1468914,13.7144772 14.1228311,11.7956708 14.1228311,9.42870309 L12.3574772,9.42870309 Z M9.70944636,12.0001676 C8.24697932,12.0001676 7.06141554,10.8488837 7.06141554,9.42870309 L5.29606165,9.42870309 C5.29606165,11.7956708 7.27200129,13.7144772 9.70944636,13.7144772 L9.70944636,12.0001676 Z M7.06141554,9.42870309 C7.06141554,8.00852247 8.24697932,6.85723861 9.70944636,6.85723861 L9.70944636,5.14292896 C7.27200129,5.14292896 5.29606165,7.06173539 5.29606165,9.42870309 L7.06141554,9.42870309 Z M9.70944636,6.85723861 C11.1719134,6.85723861 12.3574772,8.00852247 12.3574772,9.42870309 L14.1228311,9.42870309 C14.1228311,7.06173539 12.1468914,5.14292896 9.70944636,5.14292896 L9.70944636,6.85723861 Z M17.6535388,9.1646994 C17.6535388,12.4673169 15.6172031,15.7639344 13.4431698,18.3173986 C12.2492271,19.7115927 10.9361372,21.0053533 9.51790547,22.1848812 C9.40725579,22.2762282 9.29544141,22.3662364 9.18248823,22.454885 L9.16660004,22.4668852 L9.16306934,22.4694566 L9.70944636,23.1431803 C9.89113597,23.3680284 10.0735568,23.5923183 10.2567061,23.8160468 L10.2584714,23.8143325 L10.2646502,23.8091896 L10.2867171,23.7920465 C10.4128701,23.6943981 10.5370568,23.5943778 10.6592068,23.4920423 C12.1565062,22.2471856 13.542554,20.8814294 14.8024923,19.4094139 C17.0427264,16.7813772 19.4188927,13.0887542 19.4188927,9.16555656 L17.6535388,9.16555656 L17.6535388,9.1646994 Z M9.70944636,23.1431803 C9.89117539,22.9183027 10.0733013,22.6937278 10.2558234,22.4694566 L10.2522927,22.4668852 L10.2364045,22.454885 C9.79003757,22.0983838 9.35468546,21.7290726 8.9309253,21.3474409 C7.87972172,20.4005205 6.89287672,19.3883815 5.97660558,18.3173986 C3.80168959,15.7630773 1.76535388,12.4673169 1.76535388,9.1646994 L0,9.1646994 C0,13.0887542 2.37704901,16.78052 4.61640041,19.410271 C5.87633874,20.8822866 7.2623865,22.2480428 8.75968597,23.4928995 C8.88975164,23.6003086 9.02128213,23.7060337 9.15424257,23.8100468 L9.16042131,23.8143325 L9.16218666,23.8160468 L9.70944636,23.1431803 Z M1.76535388,9.1646994 C1.76535388,5.07521373 5.29606165,1.71430965 9.70944636,1.71430965 L9.70944636,0 C4.37366425,0 0,4.07834266 0,9.1646994 L1.76535388,9.1646994 Z M9.70944636,1.71430965 C14.1228311,1.71430965 17.6535388,5.07435657 17.6535388,9.1646994 L19.4188927,9.1646994 C19.4188927,4.07834266 15.0452285,0 9.70944636,0 L9.70944636,1.71430965 Z" id="形状"></path>
                        </g>
                    </g>
                </g>
            </g>
        </g>
    </g>
</svg>