<?xml version="1.0" encoding="UTF-8"?>
<svg width="34px" height="33px" viewBox="0 0 34 33" version="1.1" xmlns="http://www.w3.org/2000/svg" xmlns:xlink="http://www.w3.org/1999/xlink">
    <title>编组</title>
    <defs>
        <filter id="filter-1">
            <feColorMatrix in="SourceGraphic" type="matrix" values="0 0 0 0 0.745098 0 0 0 0 0.745098 0 0 0 0 0.752941 0 0 0 1.000000 0"></feColorMatrix>
        </filter>
    </defs>
    <g id="页面-1" stroke="none" stroke-width="1" fill="none" fill-rule="evenodd">
        <g id="编组" transform="translate(-682.000000, -180.000000)" filter="url(#filter-1)">
            <g transform="translate(682.000000, 180.000000)">
                <path d="M11.0747407,26 C11.6680335,25.9993767 12.1488299,25.5393671 12.1494814,24.9717248 L12.1494814,12.0282752 C12.1494814,11.461263 11.667375,11 11.0747407,11 C10.4821064,11 10,11.461263 10,12.0282752 L10,24.9715363 C10.0228542,25.535344 10.5051577,26 11.0747407,26 Z M22.9254563,26 C23.5187172,25.9993765 23.9994571,25.5393366 24,24.9717248 L24,12.0282752 C24,11.461263 23.5180906,11 22.9254563,11 C22.332822,11 21.8509126,11.461263 21.8509126,12.0282752 L21.8509126,24.9715363 C21.8514553,25.5391787 22.3321636,25.9992726 22.9254563,26 Z M17.0000985,26 C17.5933913,25.9993767 18.0741877,25.5393671 18.0748392,24.9717248 L18.0748392,12.0282752 C18.0748392,11.461263 17.5927328,11 17.0000985,11 C16.4074642,11 15.9253578,11.461263 15.9253578,12.0282752 L15.9253578,24.9715363 C15.9260091,25.5392092 16.4067738,25.9992728 17.0000985,26 Z" id="形状" fill="#999999" fill-rule="nonzero"></path>
                <path d="M32.9641332,5.04407635 L25.055466,5.04407635 L25.055466,3.63684198 C25.055466,2.18298294 23.8654061,1 22.4028495,1 L12.6233557,1 C11.1607992,1 9.9707392,2.18298294 9.9707392,3.63684198 L9.9707392,5.04407635 L2.03586678,5.04407635 C1.46403365,5.04470055 1.00062793,5.5053505 1,6.07378306 C1.00062812,6.64218498 1.46406437,7.10278084 2.03586678,7.10330101 L5.8766443,7.10330101 L5.8766443,28.7301621 C5.8766443,31.0846134 7.80348943,33 10.1722158,33 L24.8279741,33 C27.1965106,33 29.1233557,31.0846134 29.1233557,28.7301621 L29.1233557,7.0772516 L32.9641332,7.0772516 C33.5359663,7.0766274 33.9993721,6.61597745 34,6.04754489 C34,5.4848399 33.5448263,5.04407635 32.9641332,5.04407635 Z M12.0162324,3.63684198 C12.0145215,3.4762639 12.0779216,3.32175645 12.1921534,3.20820396 C12.3063852,3.09465148 12.461817,3.03162843 12.6233557,3.03336401 L22.4026597,3.03336401 C22.5641984,3.03162843 22.7196301,3.09465148 22.8338619,3.20820396 C22.9480937,3.32175645 23.0114938,3.4762639 23.009783,3.63684198 L23.009783,5.04407635 L12.0162324,5.04407635 L12.0162324,3.63684198 Z M27.051812,28.7301621 C27.051812,29.9491989 26.0541138,30.9409641 24.8279741,30.9409641 L10.1722158,30.9409641 C8.94588623,30.9409641 7.94818796,29.9491989 7.94818796,28.7301621 L7.94818796,7.0772516 L27.051812,7.0772516 L27.051812,28.7301621 Z" id="形状" fill="#999999" fill-rule="nonzero"></path>
                <path d="M8,28.781881 C8,30.0049524 8.99228644,31 10.211964,31 L24.7882249,31 C26.0077136,31 27,30.0049524 27,28.781881 L27,7.05730655 L8,7.05730655 L8,28.781881 Z M8.37772609,7.4360837 L26.6222739,7.4360837 L26.6222739,28.781881 C26.6222739,29.7960568 25.7995865,30.6212228 24.7882249,30.6212228 L10.211964,30.6212228 C9.20060237,30.6212228 8.37772609,29.7962462 8.37772609,28.781881 L8.37772609,7.4360837 Z M22.980085,3.60551032 C22.9817866,3.44440078 22.9187304,3.28938196 22.8051182,3.17545365 C22.6915061,3.06152535 22.5369174,2.99829371 22.3762549,3.00003504 L12.6498082,3.00003504 C12.4891457,2.99829371 12.334557,3.06152535 12.2209449,3.17545365 C12.1073327,3.28938196 12.0442765,3.44440078 12.0459781,3.60551032 L12.0459781,5.01740217 L22.980085,5.01740217 L22.980085,3.60551032 Z M12.4236788,3.60551032 C12.4223289,3.54496379 12.4456937,3.48647695 12.4883994,3.44365242 C12.5311051,3.40082788 12.5894296,3.37739807 12.6498082,3.37881219 L22.3760661,3.37881219 C22.4364446,3.37739807 22.4947691,3.40082788 22.5374748,3.44365242 C22.5801805,3.48647695 22.6035453,3.54496379 22.6021955,3.60551032 L22.6021955,4.63862502 L12.4236788,4.63862502 L12.4236788,3.60551032 Z" id="形状" fill="#FFFFFF" fill-rule="nonzero"></path>
            </g>
        </g>
    </g>
</svg>