<?xml version="1.0" encoding="UTF-8"?>
<svg width="25px" height="25px" viewBox="0 0 25 25" version="1.1" xmlns="http://www.w3.org/2000/svg" xmlns:xlink="http://www.w3.org/1999/xlink">
    <title>编组</title>
    <g id="页面-1" stroke="none" stroke-width="1" fill="none" fill-rule="evenodd">
        <g id="3.9首页-资讯详情" transform="translate(-637.000000, -337.000000)" fill="#999999" fill-rule="nonzero">
            <g id="编组" transform="translate(637.000000, 337.000000)">
                <path d="M23.9326115,9.94490607 C23.3001321,9.1471166 22.3532334,8.68965634 21.3350117,8.68965634 L15.1078735,8.71542517 C15.4243531,7.83276508 15.5988643,6.98659908 15.7615212,6.06967463 C15.9327019,5.10474056 15.9394193,3.22324896 15.4035518,2.24109804 C14.7445414,1.03298298 13.7153123,0.249785495 12.2512306,0.0322322074 C11.5878737,-0.0662425488 11.0174878,0.0611057171 10.5554834,0.411059429 C9.62179371,1.11841808 9.45050014,2.46455022 9.25194184,4.02312703 C9.09332099,5.26911917 8.91350366,6.68135274 8.30919211,7.69364726 C7.90597905,8.36925352 7.12091876,9.26729588 4.96895322,9.26729588 L2.72322638,9.26729588 C1.22775921,9.26729588 0.0110921694,10.4835113 0.0110921694,11.9784422 L0.0110921694,22.2282277 C0.0110921694,23.7231022 1.22775921,24.9393459 2.72322638,24.9393459 L19.0840352,24.9393459 C19.828904,24.9393459 20.5602533,24.6845647 21.1437635,24.2219676 C21.7274713,23.7592576 22.1421717,23.1051865 22.3118565,22.3802159 L24.562833,12.7576036 C24.794555,11.7672112 24.5648934,10.741877 23.9326115,9.94490607 Z M4.75927452,23.6919425 L2.67671265,23.6919425 C2.13167224,23.6919425 1.68832415,23.2489331 1.68832415,22.7045983 L1.68832415,11.5021563 C1.68832415,10.9578498 2.13167224,10.5148686 2.67671265,10.5148686 L4.75927452,10.5148686 L4.75927452,23.6919425 Z M23.2314905,12.3394317 L20.8623103,22.4676831 C20.6937827,23.1883919 20.0585091,23.6919425 19.3176481,23.6919425 L6.00543601,23.6919425 L6.00543601,10.8639191 C7.6128974,10.5570075 8.82205676,9.73844495 9.61027818,8.41805342 C10.4499526,7.0115494 10.6658124,5.31577402 10.8564114,3.81977059 C10.9425239,3.14374097 11.0236972,2.50516506 11.15288,2.01527502 C11.2914051,1.48987875 11.4347284,1.33599959 11.4899352,1.29411466 C11.5530731,1.24624616 11.6729419,1.23512577 11.8458725,1.2607817 C12.8004482,1.40252439 13.4629301,1.83542946 13.8711107,2.58385454 C14.7088094,4.11923094 14.3387882,6.71064961 13.5403213,8.47690119 C13.3491296,8.90004064 13.3846922,9.38470918 13.6357761,9.77355604 C13.8863801,10.1620924 14.3129064,10.393899 14.7764067,10.393899 L21.6868,10.393899 C22.174291,10.393899 22.6273483,10.6127506 22.9301109,10.9945132 C23.2324783,11.3756266 23.3422993,11.8659682 23.2314905,12.3394317 Z" id="形状"></path>
            </g>
        </g>
    </g>
</svg>