<?xml version="1.0" encoding="UTF-8"?>
<svg width="100px" height="100px" viewBox="0 0 100 100" version="1.1" xmlns="http://www.w3.org/2000/svg" xmlns:xlink="http://www.w3.org/1999/xlink">
    <title>编组</title>
    <g id="页面-1" stroke="none" stroke-width="1" fill="none" fill-rule="evenodd">
        <g id="3.7首页-公开课分享" transform="translate(-228.000000, -1020.000000)" fill="#07C160" fill-rule="nonzero">
            <g id="编组-20" transform="translate(0.000000, 974.000000)">
                <g id="编组-19" transform="translate(226.000000, 46.000000)">
                    <g id="编组" transform="translate(2.000000, 0.000000)">
                        <path d="M50,0.0875 C22.4074219,0.0875 0,22.3097656 0,49.9023437 C0,77.4949219 22.4074219,99.7171875 50,99.7171875 C77.5925781,99.7171875 99.8148438,77.4949219 99.8148438,49.9023437 C99.8148438,22.3097656 77.5925781,0.0875 50,0.0875 Z M41.1111328,61.5689453 C38.5185547,61.5689453 36.2962891,61.0134766 33.7037109,60.4579102 L26.2962891,64.1616211 L28.5185547,57.6801758 C23.1481445,53.9764648 20,49.1616211 20,43.2356445 C20,33.0504883 29.6295898,25.0875 41.2962891,25.0875 C51.8518555,25.0875 60.9258789,31.3837891 62.7777344,40.0875 C62.0370117,40.0875 61.4814453,39.9023438 60.7407227,39.9023438 C50.5555664,39.9023438 42.5925781,47.4949219 42.5925781,56.7541992 C42.5925781,58.2356445 42.7777344,59.7170898 43.3333008,61.1986328 C42.5925781,61.569043 41.8518555,61.569043 41.1111328,61.569043 L41.1111328,61.5689453 Z M72.5925781,69.1616211 L74.2592773,74.5319336 L68.5185547,71.1986328 C66.2962891,71.7541992 64.2592773,72.3097656 62.0371094,72.3097656 C51.8518555,72.3097656 43.8888672,65.4579102 43.8888672,56.9393555 C43.8888672,48.4208008 51.8518555,41.3837891 62.0371094,41.3837891 C71.6667969,41.3837891 80.1852539,48.2356445 80.1852539,56.9394531 C80.1852539,61.569043 77.0371094,65.8282227 72.5926758,69.1616211 L72.5925781,69.1616211 Z" id="形状"></path>
                        <path d="M31.1111328,36.9394531 C31.1111328,38.6060547 32.4074219,39.9023438 34.0740234,39.9023438 C35.740625,39.9023438 37.0370117,38.6060547 37.0370117,36.9394531 C37.0370117,35.2728516 35.7407227,33.9764648 34.0741211,33.9764648 C32.4075195,33.9764648 31.1111328,35.2727539 31.1111328,36.9393555 L31.1111328,36.9394531 Z M54.0740234,52.4949219 C54.0740234,53.7912109 55.1851563,54.9023438 56.4814453,54.9023438 C57.7777344,54.9023438 58.8888672,53.7912109 58.8888672,52.4949219 C58.8888672,51.1986328 57.7777344,50.0875 56.4814453,50.0875 C55.1851563,49.9023438 54.0741211,51.0134766 54.0741211,52.4949219 L54.0740234,52.4949219 Z M46.1111328,36.9393555 C46.1111328,38.6060547 47.4074219,39.9023438 49.0740234,39.9023438 C50.7407227,39.9023438 52.0370117,38.6060547 52.0370117,36.9394531 C52.0370117,35.2727539 50.7407227,33.9764648 49.0741211,33.9764648 C47.4074219,33.9764648 46.1111328,35.2727539 46.1111328,36.9393555 Z M65.9257813,52.4951172 C65.9257813,53.7913086 67.0369141,54.9024414 68.3332031,54.9024414 C69.6294922,54.9024414 70.740625,53.7913086 70.740625,52.4950195 C70.740625,51.1987305 69.6294922,50.0875977 68.3332031,50.0875977 C67.0369141,49.9024414 65.9257813,51.0135742 65.9257813,52.4950195 L65.9257813,52.4951172 Z" id="形状"></path>
                    </g>
                </g>
            </g>
        </g>
    </g>
</svg>