<?xml version="1.0" encoding="UTF-8"?>
<svg width="100px" height="100px" viewBox="0 0 100 100" version="1.1" xmlns="http://www.w3.org/2000/svg" xmlns:xlink="http://www.w3.org/1999/xlink">
    <title>编组</title>
    <g id="页面-1" stroke="none" stroke-width="1" fill="none" fill-rule="evenodd">
        <g id="3.7首页-公开课分享" transform="translate(-426.000000, -1020.000000)" fill-rule="nonzero">
            <g id="编组-20" transform="translate(0.000000, 974.000000)">
                <g id="编组" transform="translate(426.000000, 46.000000)">
                    <path d="M65.1387865,43.5447145 L65.1387865,43.4724492 L65.1387865,43.5447145 Z M43.5430208,65.2085113 L43.6152862,65.2807766 L43.5430208,65.2807766 L43.6152862,65.2807766 L43.5430208,65.2085113 Z" id="形状" fill="#52AE71"></path>
                    <path d="M49.8941426,0.070571582 C22.3006352,0.070571582 0,22.3712067 0,49.9647142 C0,77.5582216 22.3006352,99.8588567 49.8941426,99.8588567 C77.48765,99.8588567 99.7882852,77.5582216 99.7882852,49.9647142 C99.7882852,22.3712067 77.48765,0.070571582 49.8941426,0.070571582 Z M59.7035991,27.3817925 C61.6796048,28.2286521 63.5850388,29.3577981 65.3493296,30.7692308 C66.0550459,31.3338038 66.8313338,31.9689484 67.4664785,32.6040932 C69.0190544,34.156669 70.2893438,35.8503882 71.3479182,37.6852505 C71.6302047,38.1086803 71.9124912,38.6026816 72.0536345,39.0261115 L59.7035991,51.2350035 C59.7741707,50.5292872 59.7035991,27.3817925 59.7035991,27.3817925 Z M47.2124206,25.6880734 C48.1298518,25.6175019 49.047283,25.4763585 50.0352858,25.4763585 C52.2230063,25.4763585 54.410727,25.758645 56.3867325,26.3232181 C56.9513056,26.5349329 57.3747354,26.6055046 57.9393084,26.7466479 L57.9393084,44.1778405 C57.3747354,43.5426959 40.8609739,27.3112209 40.8609739,27.3112209 C42.8369796,26.4643613 44.8835568,25.8997883 47.2124206,25.6880734 Z M30.6280875,34.6506704 C31.1926605,33.9449541 31.8278052,33.3098095 32.4629499,32.5335215 C34.0155258,30.9809456 35.7092449,29.7106562 37.5441072,28.6520818 C37.967537,28.3697953 38.4615384,28.0875088 38.8849683,27.9463655 L51.2350035,40.2258292 C50.5292872,40.1552576 27.2406492,40.2258292 27.2406492,40.2258292 C28.2286521,38.2498235 29.2872265,36.3443896 30.6280875,34.6506704 Z M25.5469302,52.7170077 C25.4763586,51.7995766 25.3352152,50.8821453 25.3352152,49.9647142 C25.3352152,47.7769937 25.6175018,45.7304163 26.1820748,43.6132675 C26.3937896,43.0486944 26.4643613,42.6252646 26.6055046,42.0606916 L44.0366973,42.0606916 C43.4721242,42.4841214 27.1700776,58.9978828 27.1700776,58.9978828 C26.3937897,57.0924488 25.8292167,54.9752999 25.5469302,52.7170077 Z M34.4389556,69.1601976 C33.7332393,68.5956245 32.9569514,67.9604799 32.3218066,67.3253353 C30.7692308,65.7727594 29.4989414,64.0790402 28.440367,62.2441778 C28.1580805,61.820748 27.8757939,61.3267467 27.7346507,60.9033169 L40.0846859,48.6238532 C40.0141144,49.3295695 40.0846859,72.6182075 40.0846859,72.4770643 C38.1086803,71.5596331 36.2738179,70.5010586 34.4389556,69.1601976 Z M52.6464361,74.3119266 C51.729005,74.3824981 50.8115737,74.5236415 49.8941426,74.5236415 C47.7064221,74.5236415 45.5187015,74.241355 43.5426958,73.6767819 C42.9781228,73.4650671 42.554693,73.3944954 41.99012,73.2533521 L41.99012,55.8221595 C42.4841214,56.4573041 59.0684545,72.6887791 59.0684545,72.6887791 C56.9513056,73.465067 54.9047283,74.02964 52.6464361,74.3119266 L52.6464361,74.3119266 Z M68.9484827,65.4199012 C68.3839097,66.1256175 67.748765,66.9019054 67.1136203,67.5370501 C65.5610444,69.089626 63.8673253,70.3599153 62.032463,71.4184897 C61.6090332,71.7007763 61.1150318,71.9830628 60.691602,72.1242061 L48.3415667,59.7741708 C49.047283,59.8447424 72.335921,59.7741708 72.335921,59.7741708 C71.4890614,61.7501765 70.430487,63.5850389 68.9484827,65.4199012 Z M73.6062104,56.3161609 C73.3944955,56.880734 73.3239238,57.3041638 73.1827806,57.8687368 L55.6104446,57.8687368 C56.2455893,57.445307 72.5476358,40.9315455 72.5476358,40.9315455 C73.3944954,42.9075512 73.8884968,45.0247001 74.1707833,47.2829923 C74.2413549,48.2004234 74.3824982,49.1178547 74.3824982,50.0352858 C74.3824982,52.2230063 74.1707834,54.3401553 73.6062104,56.3161609 Z" id="形状" fill="#07C160"></path>
                </g>
            </g>
        </g>
    </g>
</svg>