<?xml version="1.0" encoding="UTF-8"?>
<svg width="34px" height="25px" viewBox="0 0 34 25" version="1.1" xmlns="http://www.w3.org/2000/svg" xmlns:xlink="http://www.w3.org/1999/xlink">
    <title>编组</title>
    <g id="页面-1" stroke="none" stroke-width="1" fill="none" fill-rule="evenodd">
        <g id="3.9首页-资讯详情" transform="translate(-507.000000, -337.000000)" fill="#999999" fill-rule="nonzero">
            <g id="编组" transform="translate(507.000000, 337.000000)">
                <path d="M34,12.5037662 C34,12.2990499 33.9654848,12.1278113 33.955677,12.1074317 C33.9482481,12.0059942 33.9137329,11.8211134 33.8816384,11.7240698 C33.8730409,11.699924 33.8618976,11.6746064 33.8520898,11.6504606 C33.8347696,11.5948039 33.8163225,11.5404026 33.7953714,11.4971326 C30.6601667,4.62130822 23.9100924,0 17.000881,0 C10.0929218,0 3.34343176,4.61703981 0.222458814,11.4556621 C0.184855217,11.5298989 0.158311495,11.6009973 0.141659079,11.6628474 C0.134271922,11.683227 0.12563267,11.702393 0.11887156,11.7203454 C0.0571866268,11.9015437 0.0559763362,12.0276291 0.0609011075,11.9948628 C0.0319367223,12.1278113 0.00539304065,12.3924528 0.00539304065,12.3924528 C-0.00199411643,12.4721716 -0.00199411643,12.535863 0.00664509494,12.6150379 C0.00664509494,12.6150379 0.0331470537,12.8462853 0.0461267934,12.8932379 C0.0497995105,12.9587705 0.0658259197,13.0540147 0.0849407214,13.1405965 L0.0836886671,13.1405965 C0.100341083,13.2147915 0.123170366,13.2865176 0.154597096,13.3569882 C0.170665228,13.4113895 0.189780029,13.4621082 0.206432445,13.5004403 C3.34589414,20.3774363 10.0941738,25 17.000881,25 C23.9113445,25 30.6614188,20.3812026 33.7608562,13.5771043 C33.8088936,13.4880535 33.8397778,13.4039825 33.860729,13.3310011 C33.8705786,13.3087802 33.8792595,13.2889865 33.8853946,13.2691928 C33.9396924,13.1108431 33.9507523,12.9736263 33.9458275,12.9736263 L33.9446589,12.9748398 C33.9667786,12.8648654 34,12.7004061 34,12.5037662 Z M31.7109805,12.5878372 C31.7097701,12.592817 31.707266,12.5989685 31.7048036,12.6039483 C31.7011309,12.6187622 31.6949958,12.636087 31.6912396,12.6534117 C28.9013953,18.6820402 23.0109867,22.7271547 17.000881,22.7271547 C11.0055914,22.7271547 5.12561659,18.6932552 2.30801825,12.6435358 C2.30121538,12.6225285 2.29629061,12.6026929 2.28890345,12.5829411 C2.28765139,12.5631474 2.28397868,12.5470781 2.28276835,12.5359049 C2.28030596,12.5236018 2.27784358,12.5062771 2.27596547,12.4913795 L2.27596547,12.4759379 C2.28276835,12.4505785 2.28765139,12.425261 2.2901555,12.3974326 C2.29508027,12.3826187 2.29879471,12.3683907 2.30434553,12.3523214 C5.09535843,6.32055431 10.9907336,2.27359845 17.0008393,2.27359845 C23.0133657,2.27359845 28.9075722,6.32423687 31.6899876,12.3467138 C31.6924499,12.3584729 31.694954,12.3683907 31.6986685,12.3764253 C31.7011309,12.3863012 31.7035516,12.396219 31.7084763,12.4067226 C31.7146532,12.4518757 31.7195779,12.4964011 31.7257548,12.518622 C31.7183676,12.5420982 31.7146949,12.5643609 31.7109805,12.5878372 Z" id="形状"></path>
                <path d="M17.5,7 C14.4681346,7 12,9.46705575 12,12.4996962 C12,15.531729 14.4681346,18 17.5,18 C20.5318654,18 23,15.531729 23,12.4996962 C23,9.46705575 20.5318654,7 17.5,7 Z M17.5,15.7998785 C15.6818286,15.7998785 14.2000405,14.3191832 14.2000405,12.4997367 C14.2000405,10.6808572 15.6818286,9.20020252 17.5,9.20020252 C19.3193461,9.20020252 20.8000405,10.6808977 20.8000405,12.4997367 C20.8000405,14.3191832 19.3193461,15.7998785 17.5,15.7998785 Z" id="形状"></path>
            </g>
        </g>
    </g>
</svg>