<?xml version="1.0" encoding="UTF-8"?>
<svg width="25px" height="24px" viewBox="0 0 25 24" version="1.1" xmlns="http://www.w3.org/2000/svg" xmlns:xlink="http://www.w3.org/1999/xlink">
    <title>编组</title>
    <g id="页面-1" stroke="none" stroke-width="1" fill="none" fill-rule="evenodd">
        <g id="3.2首页" transform="translate(-72.000000, -1475.000000)" fill="#999FA6" fill-rule="nonzero">
            <g id="校区卡片" transform="translate(40.000000, 1320.000000)">
                <g id="编组-8" transform="translate(32.000000, 31.000000)">
                    <g id="编组-3" transform="translate(0.970945, 120.000000)">
                        <g id="编组" transform="translate(0.000000, 4.000000)">
                            <path d="M5.55592793,1.11430398 L6.15290612,0.500154173 L5.55592793,1.11430398 Z M9.10406949,4.76879938 L8.5070913,5.38294919 L9.10406949,4.76879938 Z M1.86444415,3.68904236 L1.26830915,3.07489255 L1.86444415,3.68904236 Z M4.33498948,1.14383877 L4.93112448,1.75885725 L4.33498948,1.14470744 L4.33498948,1.14383877 Z M18.6734275,14.6282058 L19.2695625,14.0131873 L18.6734275,14.6273371 L18.6734275,14.6282058 Z M22.2207259,18.2827012 L21.6245909,18.896851 L22.2207259,18.2827012 Z M17.4516459,14.6577406 L18.0477809,15.2718904 L17.4516459,14.6577406 Z M6.60485571,8.57270606 L6.00787752,7.95768758 C5.85970489,8.1106932 5.77221943,8.31510998 5.76250937,8.53100989 L6.60401252,8.57270606 L6.60485571,8.57270606 Z M14.9811005,17.2020755 L14.9802574,18.0707491 C15.2043299,18.0713883 15.4194356,17.9801204 15.5780787,17.817094 L14.9819437,17.2029442 L14.9811005,17.2020755 Z M10.1673315,13.5319441 L10.7584074,12.9117136 L10.1681747,13.5319441 L10.1673315,13.5319441 Z M4.95979293,1.72845379 L8.5070913,5.38294919 L9.70020449,4.15464957 L6.15290612,0.500154173 L4.95894974,1.72845379 L4.95979293,1.72845379 Z M2.46057915,4.30319217 L4.93112448,1.75798858 L3.73885448,0.530557629 L1.26830915,3.07576122 L2.46057915,4.30319217 Z M8.5070913,5.38294919 C8.50379961,5.3794575 8.50121939,5.37532253 8.49950259,5.37078781 C8.49865941,5.36731313 8.49950259,5.36731313 8.49950259,5.37078781 C8.49950259,5.37947451 8.49528665,5.39511058 8.47842286,5.41335265 L9.67069286,6.64165227 C10.3182624,5.97451358 10.3848744,4.86087842 9.70020449,4.15464957 L8.5070913,5.38294919 L8.5070913,5.38294919 Z M6.15290612,0.500154173 C5.46739303,-0.205206004 4.38558086,-0.136581061 3.73885448,0.530557629 L4.93112448,1.75885725 C4.94798828,1.74148384 4.96485207,1.73714049 4.97159758,1.73714049 C4.97497034,1.73714049 4.97497034,1.73714049 4.97159758,1.73714049 C4.96713486,1.73509375 4.96311962,1.73213905 4.95979293,1.72845379 L6.15290612,0.500154173 Z M18.0772925,15.2414869 L21.6245909,18.896851 L22.8168609,17.6676827 L19.2695625,14.0131873 L18.0772925,15.2423556 L18.0772925,15.2414869 Z M21.5950793,18.9263858 L19.1245339,21.4715894 L20.3176471,22.699889 L22.7881924,20.1546854 L21.5950793,18.9263858 Z M21.6245909,18.896851 C21.6210308,18.8934083 21.6181654,18.8892756 21.616159,18.8846896 C21.616159,18.881215 21.616159,18.881215 21.616159,18.8846896 C21.616159,18.8925077 21.6127862,18.9090124 21.5950793,18.9263858 L22.7873493,20.1555541 C23.4349188,19.4884154 23.502374,18.3739116 22.8168609,17.6685514 L21.6245909,18.896851 L21.6245909,18.896851 Z M19.2695625,14.0131873 C18.5840494,13.3078271 17.5030804,13.3764521 16.8555109,14.0435908 L18.0477809,15.2718904 C18.0646447,15.254517 18.0815085,15.2510423 18.088254,15.2501736 C18.0924699,15.2501736 18.0924699,15.2510423 18.088254,15.2501736 C18.0840815,15.2480483 18.0803567,15.2450965 18.0772925,15.2414869 L19.2695625,14.0131873 Z M19.1253771,21.4715894 C18.5410468,22.0735778 17.8268652,22.3081188 16.9668119,22.2551299 C16.0772469,22.2012723 15.0426534,21.8346935 13.9271136,21.2222811 C11.6960341,20.0000621 9.37389014,17.9282838 7.62174229,16.1231872 L6.42947229,17.3523555 C8.22293643,19.2000169 10.6850499,21.4133885 13.1345155,22.7554839 C14.3571403,23.426966 15.6379452,23.9142899 16.8673155,23.9898642 C18.1270407,24.0671759 19.3378609,23.7084151 20.3176471,22.699889 L19.1253771,21.4715894 L19.1253771,21.4715894 Z M7.62174229,16.1231872 C5.85947616,14.3076665 3.85690102,11.9231669 2.68065162,9.63682701 C2.09041894,8.4927884 1.74133848,7.43387946 1.69243348,6.52177579 C1.64437168,5.6418129 1.87456242,4.90778661 2.46057915,4.30319217 L1.26830915,3.07489255 C0.291052476,4.08168128 -0.061400749,5.32474829 0.00858398238,6.61906685 C0.0760391451,7.8812446 0.543166147,9.1946739 1.18989252,10.4499023 C2.48418846,12.9647024 4.62504668,15.4934013 6.42947229,17.3514868 L7.62174229,16.1231872 L7.62174229,16.1231872 Z M8.47842286,5.41248398 L6.00787752,7.95768758 L7.2018339,9.18685587 L9.67153605,6.64165227 L8.47926605,5.41335265 L8.47842286,5.41248398 Z M15.5780787,17.817094 L18.0486241,15.2718904 L16.8555109,14.0435908 L14.3849655,16.5887944 L15.5780787,17.817094 Z M6.60485571,8.57270606 C5.76166618,8.53014122 5.76166618,8.53187856 5.76166618,8.53274723 L5.76166618,8.55185797 C5.76076892,8.57646161 5.76076892,8.60109129 5.76166618,8.62569494 C5.76419574,8.66217908 5.76672531,8.70300658 5.77262764,8.74817743 C5.78443229,8.83851913 5.80635522,8.94797157 5.84261237,9.07653475 C5.91596986,9.33279245 6.05172338,9.67244249 6.29709153,10.1102523 C6.78614146,10.9832658 7.73220012,12.2845337 9.57709882,14.1513059 L10.7584074,12.9117136 C8.97927744,11.1100916 8.1445198,9.93217487 7.75665261,9.24158209 C7.56524859,8.89845737 7.48936153,8.68563318 7.46069309,8.58573611 C7.44635887,8.53622191 7.4438293,8.51624249 7.44467249,8.52145452 C7.44722556,8.54015301 7.44807245,8.55905681 7.44720206,8.57791808 L7.44720206,8.61179621 C7.44720206,8.61266488 7.44720206,8.61440222 6.60401252,8.57270606 L6.60485571,8.57270606 Z M9.57625563,14.1513059 C11.4169384,16.0146034 12.674134,16.9831706 13.5029893,17.4896053 C13.9186817,17.7441257 14.2365642,17.888325 14.4726573,17.9691113 C14.5923902,18.0099388 14.6918865,18.0351302 14.7762055,18.0507663 C14.8366921,18.0616474 14.8978209,18.0683223 14.9591776,18.0707457 L14.9777278,18.0707457 C14.978571,18.0707457 14.9802574,18.0707457 14.9819437,17.2020755 C14.9827869,16.3334053 14.9844733,16.3334053 14.9853165,16.3334053 L15.0013371,16.3334053 C15.0244694,16.3347119 15.0475374,16.3370305 15.0704786,16.3403547 C15.0746946,16.3403547 15.0536148,16.33688 15.0047099,16.3203753 C14.9052135,16.2856285 14.6986321,16.2004988 14.3638858,15.9954927 C13.6918637,15.5846117 12.5425964,14.7176788 10.7584074,12.9117136 L9.57625563,14.1513059 L9.57625563,14.1513059 Z" id="形状"></path>
                        </g>
                    </g>
                </g>
            </g>
        </g>
    </g>
</svg>