<?xml version="1.0" encoding="UTF-8"?>
<svg width="401px" height="269px" viewBox="0 0 401 269" version="1.1" xmlns="http://www.w3.org/2000/svg" xmlns:xlink="http://www.w3.org/1999/xlink">
    <title>City driver-rafiki</title>
    <g id="页面-1" stroke="none" stroke-width="1" fill="none" fill-rule="evenodd">
        <g id="3.11首页-校区查询" transform="translate(-309.000000, -65.000000)" fill-rule="nonzero">
            <g id="City-driver-rafiki" transform="translate(309.000000, 65.000000)">
                <g id="freepik--background-complete--inject-98">
                    <rect id="矩形" fill="#EBEBEB" x="0" y="232.297406" width="401" height="1"></rect>
                    <rect id="矩形" fill="#EBEBEB" x="339.9678" y="245.187954" width="20.852" height="1"></rect>
                    <rect id="矩形" fill="#EBEBEB" x="249.422" y="247.367089" width="36.11406" height="1"></rect>
                    <rect id="矩形" fill="#EBEBEB" x="290.41222" y="237.753256" width="48.75358" height="1"></rect>
                    <rect id="矩形" fill="#EBEBEB" x="42.07292" y="239.099193" width="15.42246" height="1"></rect>
                    <rect id="矩形" fill="#EBEBEB" x="64.6412" y="239.099193" width="44.34258" height="1"></rect>
                    <rect id="矩形" fill="#EBEBEB" x="136.07534" y="242.480058" width="59.72494" height="1"></rect>
                    <rect id="矩形" fill="#FAFAFA" x="37.08448" y="173.508818" width="17.0024" height="58.7885879"></rect>
                    <rect id="矩形" fill="#FAFAFA" x="51.9696" y="186.407378" width="17.0024" height="45.8900288"></rect>
                    <rect id="矩形" fill="#FAFAFA" x="62.84472" y="148.592968" width="17.0024" height="83.704438"></rect>
                    <rect id="矩形" fill="#FAFAFA" x="74.1449" y="80.7193084" width="17.0024" height="151.578098"></rect>
                    <rect id="矩形" fill="#FAFAFA" x="87.5784" y="92.5202882" width="45.62578" height="139.777118"></rect>
                    <rect id="矩形" fill="#FAFAFA" transform="translate(320.310780, 212.180461) rotate(180.000000) translate(-320.310780, -212.180461) " x="310.59856" y="192.063516" width="19.42444" height="40.2338905"></rect>
                    <rect id="矩形" fill="#FAFAFA" transform="translate(303.292340, 216.594813) rotate(180.000000) translate(-303.292340, -216.594813) " x="293.58012" y="200.892219" width="19.42444" height="31.4051873"></rect>
                    <rect id="矩形" fill="#FAFAFA" transform="translate(290.877380, 203.652190) rotate(180.000000) translate(-290.877380, -203.652190) " x="281.16516" y="175.006974" width="19.42444" height="57.2904323"></rect>
                    <rect id="矩形" fill="#FAFAFA" transform="translate(277.965180, 180.426772) rotate(180.000000) translate(-277.965180, -180.426772) " x="268.25296" y="128.556138" width="19.42444" height="103.741268"></rect>
                    <rect id="矩形" fill="#F0F0F0" x="219.08234" y="105.563055" width="59.61266" height="126.734352"></rect>
                    <rect id="矩形" fill="#F5F5F5" x="270.17776" y="110.874697" width="2.83908" height="15.4221902"></rect>
                    <rect id="矩形" fill="#F5F5F5" x="270.17776" y="134.997406" width="2.83908" height="15.4221902"></rect>
                    <rect id="矩形" fill="#F5F5F5" x="270.17776" y="159.112104" width="2.83908" height="15.4221902"></rect>
                    <rect id="矩形" fill="#F5F5F5" x="270.17776" y="183.226801" width="2.83908" height="15.4221902"></rect>
                    <rect id="矩形" fill="#F5F5F5" x="270.17776" y="207.34951" width="2.83908" height="15.4221902"></rect>
                    <rect id="矩形" fill="#F5F5F5" x="260.12068" y="110.874697" width="2.83908" height="15.4221902"></rect>
                    <rect id="矩形" fill="#F5F5F5" x="260.12068" y="134.997406" width="2.83908" height="15.4221902"></rect>
                    <rect id="矩形" fill="#F5F5F5" x="260.12068" y="159.112104" width="2.83908" height="15.4221902"></rect>
                    <rect id="矩形" fill="#F5F5F5" x="260.12068" y="183.226801" width="2.83908" height="15.4221902"></rect>
                    <rect id="矩形" fill="#F5F5F5" x="260.12068" y="207.34951" width="2.83908" height="15.4221902"></rect>
                    <rect id="矩形" fill="#F5F5F5" x="250.0636" y="110.874697" width="2.83908" height="15.4221902"></rect>
                    <rect id="矩形" fill="#F5F5F5" x="250.0636" y="134.997406" width="2.83908" height="15.4221902"></rect>
                    <rect id="矩形" fill="#F5F5F5" x="250.0636" y="159.112104" width="2.83908" height="15.4221902"></rect>
                    <rect id="矩形" fill="#F5F5F5" x="250.0636" y="183.226801" width="2.83908" height="15.4221902"></rect>
                    <rect id="矩形" fill="#F5F5F5" x="250.0636" y="207.34951" width="2.83908" height="15.4221902"></rect>
                    <rect id="矩形" fill="#F5F5F5" x="240.00652" y="110.874697" width="2.83908" height="15.4221902"></rect>
                    <rect id="矩形" fill="#F5F5F5" x="240.00652" y="134.997406" width="2.83908" height="15.4221902"></rect>
                    <rect id="矩形" fill="#F5F5F5" x="240.00652" y="159.112104" width="2.83908" height="15.4221902"></rect>
                    <rect id="矩形" fill="#F5F5F5" x="240.00652" y="183.226801" width="2.83908" height="15.4221902"></rect>
                    <rect id="矩形" fill="#F5F5F5" x="240.00652" y="207.34951" width="2.83908" height="15.4221902"></rect>
                    <rect id="矩形" fill="#F5F5F5" x="229.94142" y="110.874697" width="2.83908" height="15.4221902"></rect>
                    <rect id="矩形" fill="#F5F5F5" x="229.94142" y="134.997406" width="2.83908" height="15.4221902"></rect>
                    <rect id="矩形" fill="#F5F5F5" x="229.94142" y="159.112104" width="2.83908" height="15.4221902"></rect>
                    <rect id="矩形" fill="#F5F5F5" x="229.94142" y="183.226801" width="2.83908" height="15.4221902"></rect>
                    <rect id="矩形" fill="#F5F5F5" x="229.94142" y="207.34951" width="2.83908" height="15.4221902"></rect>
                    <polygon id="路径" fill="#E0E0E0" opacity="0.5" points="219.08234 105.563055 231.36096 105.563055 236.70228 232.297406 219.08234 232.297406"></polygon>
                    <polygon id="路径" fill="#F0F0F0" points="189.77726 56.5965994 225.12942 63.2782133 225.12942 232.297406 189.77726 232.297406"></polygon>
                    <rect id="矩形" fill="#E6E6E6" x="161.49072" y="56.5965994" width="28.28654" height="175.700807"></rect>
                    <rect id="矩形" fill="#E0E0E0" transform="translate(193.310070, 71.610202) rotate(180.000000) translate(-193.310070, -71.610202) " x="161.49072" y="71.1615562" width="63.6387" height="1"></rect>
                    <rect id="矩形" fill="#E0E0E0" transform="translate(193.310070, 81.175965) rotate(180.000000) translate(-193.310070, -81.175965) " x="161.49072" y="80.7273199" width="63.6387" height="1"></rect>
                    <rect id="矩形" fill="#E0E0E0" transform="translate(193.310070, 90.741729) rotate(180.000000) translate(-193.310070, -90.741729) " x="161.49072" y="90.2930836" width="63.6387" height="1"></rect>
                    <rect id="矩形" fill="#E0E0E0" transform="translate(193.310070, 100.299481) rotate(180.000000) translate(-193.310070, -100.299481) " x="161.49072" y="99.8508357" width="63.6387" height="1"></rect>
                    <rect id="矩形" fill="#E0E0E0" transform="translate(193.310070, 109.873256) rotate(180.000000) translate(-193.310070, -109.873256) " x="161.49072" y="109.424611" width="63.6387" height="1"></rect>
                    <rect id="矩形" fill="#E0E0E0" transform="translate(193.310070, 119.439020) rotate(180.000000) translate(-193.310070, -119.439020) " x="161.49072" y="118.990375" width="63.6387" height="1"></rect>
                    <rect id="矩形" fill="#E0E0E0" transform="translate(193.310070, 129.004784) rotate(180.000000) translate(-193.310070, -129.004784) " x="161.49072" y="128.556138" width="63.6387" height="1"></rect>
                    <rect id="矩形" fill="#E0E0E0" transform="translate(193.310070, 138.570548) rotate(180.000000) translate(-193.310070, -138.570548) " x="161.49072" y="138.121902" width="63.6387" height="1"></rect>
                    <rect id="矩形" fill="#E0E0E0" transform="translate(193.310070, 148.144323) rotate(180.000000) translate(-193.310070, -148.144323) " x="161.49072" y="147.695677" width="63.6387" height="1"></rect>
                    <rect id="矩形" fill="#E0E0E0" transform="translate(193.310070, 157.710086) rotate(180.000000) translate(-193.310070, -157.710086) " x="161.49072" y="157.261441" width="63.6387" height="1"></rect>
                    <rect id="矩形" fill="#E0E0E0" transform="translate(193.310070, 167.275850) rotate(180.000000) translate(-193.310070, -167.275850) " x="161.49072" y="166.827205" width="63.6387" height="1"></rect>
                    <rect id="矩形" fill="#E0E0E0" transform="translate(193.310070, 176.833602) rotate(180.000000) translate(-193.310070, -176.833602) " x="161.49072" y="176.384957" width="63.6387" height="1"></rect>
                    <rect id="矩形" fill="#E0E0E0" transform="translate(193.310070, 186.407378) rotate(180.000000) translate(-193.310070, -186.407378) " x="161.49072" y="185.958732" width="63.6387" height="1"></rect>
                    <rect id="矩形" fill="#E0E0E0" transform="translate(193.310070, 195.973141) rotate(180.000000) translate(-193.310070, -195.973141) " x="161.49072" y="195.524496" width="63.6387" height="1"></rect>
                    <rect id="矩形" fill="#E0E0E0" transform="translate(193.310070, 205.538905) rotate(180.000000) translate(-193.310070, -205.538905) " x="161.49072" y="205.090259" width="63.6387" height="1"></rect>
                    <rect id="矩形" fill="#E0E0E0" transform="translate(193.310070, 215.104669) rotate(180.000000) translate(-193.310070, -215.104669) " x="161.49072" y="214.656023" width="63.6387" height="1"></rect>
                    <rect id="矩形" fill="#E0E0E0" transform="translate(193.310070, 224.678444) rotate(180.000000) translate(-193.310070, -224.678444) " x="161.49072" y="224.229798" width="63.6387" height="1"></rect>
                    <rect id="矩形" fill="#F0F0F0" x="116.4504" y="19.2548703" width="29.56974" height="213.042536"></rect>
                    <polygon id="路径" fill="#FAFAFA" points="146.02014 19.2548703 116.4504 19.2548703 127.33354 0.443804035 169.67914 0.443804035"></polygon>
                    <polygon id="路径" fill="#EBEBEB" points="146.02014 19.2548703 169.67914 0.443804035 169.67914 232.297406 146.02014 232.297406"></polygon>
                    <rect id="矩形" fill="#E0E0E0" x="116.4504" y="29.1811527" width="53.22874" height="1.13763689"></rect>
                    <rect id="矩形" fill="#E0E0E0" x="116.4504" y="41.2385014" width="53.22874" height="1.13763689"></rect>
                    <rect id="矩形" fill="#E0E0E0" x="116.4504" y="53.2958501" width="53.22874" height="1.13763689"></rect>
                    <rect id="矩形" fill="#E0E0E0" x="116.4504" y="65.3612104" width="53.22874" height="1.13763689"></rect>
                    <rect id="矩形" fill="#E0E0E0" x="116.4504" y="77.4185591" width="53.22874" height="1.13763689"></rect>
                    <rect id="矩形" fill="#E0E0E0" x="116.4504" y="89.4759078" width="53.22874" height="1.13763689"></rect>
                    <rect id="矩形" fill="#E0E0E0" x="116.4504" y="101.533256" width="53.22874" height="1.13763689"></rect>
                    <rect id="矩形" fill="#E0E0E0" x="116.4504" y="113.590605" width="53.22874" height="1.13763689"></rect>
                    <rect id="矩形" fill="#E0E0E0" x="116.4504" y="125.647954" width="53.22874" height="1.13763689"></rect>
                    <rect id="矩形" fill="#E0E0E0" x="116.4504" y="137.713314" width="53.22874" height="1.13763689"></rect>
                    <rect id="矩形" fill="#E0E0E0" x="116.4504" y="149.770663" width="53.22874" height="1.13763689"></rect>
                    <rect id="矩形" fill="#E0E0E0" x="116.4504" y="161.828012" width="53.22874" height="1.13763689"></rect>
                    <rect id="矩形" fill="#E0E0E0" x="116.4504" y="173.88536" width="53.22874" height="1.13763689"></rect>
                    <rect id="矩形" fill="#E0E0E0" x="116.4504" y="185.942709" width="53.22874" height="1.13763689"></rect>
                    <rect id="矩形" fill="#E0E0E0" x="116.4504" y="198.000058" width="53.22874" height="1.13763689"></rect>
                    <rect id="矩形" fill="#E0E0E0" x="116.4504" y="210.065418" width="53.22874" height="1.13763689"></rect>
                    <rect id="矩形" fill="#E0E0E0" x="116.4504" y="222.122767" width="53.22874" height="1.13763689"></rect>
                    <rect id="矩形" fill="#F0F0F0" x="79.0371" y="122.347205" width="32.2805" height="109.950202"></rect>
                    <rect id="矩形" fill="#E6E6E6" x="85.38894" y="128.027378" width="5.18092" height="17.6493948"></rect>
                    <rect id="矩形" fill="#E6E6E6" x="98.10064" y="128.027378" width="5.18092" height="17.6493948"></rect>
                    <rect id="矩形" fill="#E6E6E6" x="85.38894" y="150.884265" width="5.18092" height="17.6493948"></rect>
                    <rect id="矩形" fill="#E6E6E6" x="98.10064" y="150.884265" width="5.18092" height="17.6493948"></rect>
                    <rect id="矩形" fill="#E6E6E6" x="85.38894" y="173.733141" width="5.18092" height="17.6493948"></rect>
                    <rect id="矩形" fill="#E6E6E6" x="98.10064" y="173.733141" width="5.18092" height="17.6493948"></rect>
                    <rect id="矩形" fill="#E6E6E6" x="85.38894" y="196.590029" width="5.18092" height="17.6493948"></rect>
                    <rect id="矩形" fill="#E6E6E6" x="98.10064" y="196.590029" width="5.18092" height="17.6493948"></rect>
                    <polygon id="路径" fill="#FFFFFF" points="111.30958 122.347205 79.0371 122.347205 86.60798 114.728242 118.88848 114.728242"></polygon>
                    <polygon id="路径" fill="#E6E6E6" points="111.30958 122.347205 118.88848 114.728242 126.45936 122.347205 126.45936 232.297406 111.30958 232.297406"></polygon>
                </g>
                <g id="freepik--Shadow--inject-98" transform="translate(45.000000, 250.000000)" fill="#F5F5F5">
                    <ellipse id="freepik--path--inject-98" cx="155.5" cy="9.69" rx="155.41183" ry="8.96166667"></ellipse>
                </g>
                <g id="freepik--Smartphone--inject-98" transform="translate(220.000000, 17.000000)">
                    <rect id="矩形" fill="#D6DFEE" x="4.92803922" y="0.465148515" width="117.46098" height="241.917327" rx="9.29"></rect>
                    <rect id="矩形" fill="#D6DFEE" x="0.281372549" y="0.465148515" width="117.46098" height="241.917327" rx="9.29"></rect>
                    <rect id="矩形" fill="#FFFFFF" opacity="0.7" x="0.281372549" y="0.465148515" width="117.46098" height="241.917327" rx="9.29"></rect>
                    <g id="编组" opacity="0.9" fill="#FFFFFF">
                        <rect id="矩形" x="17.5013725" y="0.465148515" width="6.35901961" height="241.917327"></rect>
                        <rect id="矩形" x="87.2415686" y="0.465148515" width="3.89901961" height="241.917327"></rect>
                        <polygon id="路径" points="0.281372549 53.0108911 0.281372549 59.3545545 117.742353 52.0966337 117.742353 45.7529703"></polygon>
                        <polygon id="矩形" transform="translate(59.019556, 206.048762) rotate(-90.000000) translate(-59.019556, -206.048762) " points="55.8477244 147.317926 62.1913878 147.317926 62.1913878 264.779598 55.8477244 264.779598"></polygon>
                        <rect id="矩形" transform="translate(59.011526, 86.409356) rotate(-90.000000) translate(-59.011526, -86.409356) " x="57.2832591" y="27.67853" width="3.45653465" height="117.461653"></rect>
                        <polygon id="路径" points="0.281372549 166.45901 0.281372549 173.72495 117.742353 134.07505 117.742353 126.809109"></polygon>
                        <polygon id="路径" points="41.4501961 0.465148515 35.0911765 0.465148515 52.182549 242.390495 58.5415686 242.390495"></polygon>
                    </g>
                </g>
                <g id="freepik--Car--inject-98" transform="translate(61.000000, 127.000000)">
                    <path d="M255.596339,107.593795 L116.220186,107.593795 L116.220186,64.1524699 L239.074658,64.1524699 L250.540435,73.4704819 C253.750429,76.0752664 255.609117,79.992762 255.596339,84.126506 L255.596339,107.593795 Z" id="路径" fill="#D6DFEE"></path>
                    <path d="M255.596339,107.593795 L116.220186,107.593795 L116.220186,64.1524699 L239.074658,64.1524699 L250.540435,73.4704819 C253.750429,76.0752664 255.609117,79.992762 255.596339,84.126506 L255.596339,107.593795 Z" id="路径" fill="#000000" opacity="0.5"></path>
                    <path d="M115.418944,103.675904 C115.418944,87.8200602 122.630124,74.9687349 131.443789,74.9687349 L114.441429,74.9687349 C105.571677,74.9687349 98.4165839,87.788012 98.4165839,103.675904 C98.4165839,119.563795 105.627764,132.391084 114.441429,132.391084 L131.475839,132.391084 C122.590062,132.391084 115.418944,119.531747 115.418944,103.675904 Z" id="路径" fill="#263238"></path>
                    <ellipse id="椭圆形" fill="#263238" cx="131.475839" cy="103.675904" rx="16.0568944" ry="28.7071687"></ellipse>
                    <ellipse id="椭圆形" fill="#FFFFFF" cx="132.765839" cy="103.675904" rx="11.3856522" ry="22.3856627"></ellipse>
                    <path d="M22.8674534,103.675904 C22.8674534,87.8200602 30.0786335,74.9687349 38.8922981,74.9687349 L21.8899379,74.9687349 C13.0201863,74.9687349 5.86509317,87.788012 5.86509317,103.675904 C5.86509317,119.563795 13.0762733,132.391084 21.8899379,132.391084 L38.9243478,132.391084 C30.0545963,132.391084 22.8674534,119.531747 22.8674534,103.675904 Z" id="路径" fill="#263238"></path>
                    <ellipse id="椭圆形" fill="#263238" cx="38.9243478" cy="103.675904" rx="16.0568944" ry="28.7071687"></ellipse>
                    <path d="M225.45354,103.675904 C225.45354,87.8200602 232.66472,74.9687349 241.478385,74.9687349 L224.476025,74.9687349 C215.614286,74.9687349 208.45118,87.788012 208.45118,103.675904 C208.45118,119.563795 215.66236,132.391084 224.476025,132.391084 L241.510435,132.391084 C232.648696,132.391084 225.45354,119.531747 225.45354,103.675904 Z" id="路径" fill="#263238"></path>
                    <ellipse id="椭圆形" fill="#263238" cx="241.510435" cy="103.675904" rx="16.0568944" ry="28.7071687"></ellipse>
                    <ellipse id="椭圆形" fill="#FFFFFF" cx="242.808447" cy="103.675904" rx="11.3856522" ry="22.3856627"></ellipse>
                    <path d="M96.445528,111.68796 L75.8455901,111.68796 L74.6918012,110.566265 C73.5067431,109.37865 71.898641,108.71008 70.2208696,108.70747 L18.7330435,108.70747 C17.0552721,108.71008 15.44717,109.37865 14.2621118,110.566265 L13.5570186,111.263313 L11.6821118,111.263313 C8.73983158,111.263351 5.91887073,110.090764 3.84363437,108.005099 C1.76839801,105.919433 0.610044334,103.092707 0.624826492,100.150602 L0.624826492,83.2051205 L117.462112,83.2051205 L108.167702,103.411506 C106.410833,108.376856 101.712743,111.693944 96.445528,111.68796 Z" id="路径" fill="#D6DFEE"></path>
                    <path d="M96.445528,111.68796 L75.8455901,111.68796 L74.6918012,110.566265 C73.5067431,109.37865 71.898641,108.71008 70.2208696,108.70747 L18.7330435,108.70747 C17.0552721,108.71008 15.44717,109.37865 14.2621118,110.566265 L13.5570186,111.263313 L11.6821118,111.263313 C8.73983158,111.263351 5.91887073,110.090764 3.84363437,108.005099 C1.76839801,105.919433 0.610044334,103.092707 0.624826492,100.150602 L0.624826492,83.2051205 L117.462112,83.2051205 L108.167702,103.411506 C106.410833,108.376856 101.712743,111.693944 96.445528,111.68796 Z" id="路径" fill="#000000" opacity="0.2"></path>
                    <path d="M218.066087,10.9605513 C217.995257,10.9618711 217.925587,10.9423643 217.865776,10.9043976 C217.773168,10.8524255 217.705564,10.7651563 217.67839,10.6625005 C217.651215,10.5598447 217.666787,10.4505595 217.721553,10.3595783 L223.330248,0.745120482 C223.393227,0.605776087 223.530043,0.51443711 223.68289,0.509693829 C223.835738,0.504950548 223.977954,0.587630436 224.049453,0.72280164 C224.120952,0.857972844 224.10926,1.0220545 224.019317,1.14572289 L218.410621,10.7601807 C218.33949,10.8833838 218.208352,10.9596233 218.066087,10.9605513 Z" id="路径" fill="#263238"></path>
                    <path d="M247.64795,58.7924096 L247.64795,47.8639759 C247.64795,42.1193373 239.299006,15.0145783 227.817205,9.93493976 C216.335404,4.8553012 188.556335,2.59590361 171.057205,3.5253012 C153.558075,4.4546988 130.193851,41.0537349 130.193851,41.0537349 L132.733789,72.5250602 C136.291304,72.5250602 147.62087,71.4514458 149.279441,102.586265 C149.510255,107.14543 153.279515,110.720595 157.84472,110.710503 L219.107702,110.710503 C223.362921,110.707261 226.965456,107.569715 227.552795,103.355422 C229.15528,92.2587349 233.337764,72.5010241 243.425404,72.5010241 C250.500373,72.5010241 255.572238,78.5581325 255.572238,85.5045783 L255.572238,85.5045783 C255.57418,77.8731758 253.720843,70.3556895 250.171863,63.5996386 L247.64795,58.7924096 Z" id="路径" fill="#D6DFEE"></path>
                    <path d="M106.957826,3.5253012 C75.0924224,3.5253012 38.9884472,41.0537349 38.9884472,41.0537349 L130.225901,41.0537349 C130.225901,41.0537349 153.566087,4.46271084 171.089255,3.5253012 L106.957826,3.5253012 Z" id="路径" fill="#D6DFEE"></path>
                    <path d="M108.912857,3.5253012 C82.0712422,3.5253012 53.9155901,30.1573494 45.7028571,38.5459639 C45.285577,38.9703487 45.1644162,39.6040045 45.3956942,40.152388 C45.6269721,40.7007715 46.1653201,41.0563088 46.7604969,41.05381 L120.362609,41.05381 C126.371206,41.070678 132.027086,38.2190567 135.586211,33.3781928 C143.502484,22.5939759 158.750124,4.1903012 171.089255,3.5253012 L108.912857,3.5253012 Z" id="路径" fill="#FFFFFF" opacity="0.4"></path>
                    <path d="M130.225901,41.0537349 L96.5256522,67.6457229 L5.83304348,67.3572892 C5.83304348,67.3572892 0.624968944,74.9286747 0.624968944,83.2051205 L117.462112,83.2051205 C119.377081,78.133494 126.091491,72.5250602 132.765839,72.5250602 C132.765839,63.0868675 130.225901,41.0537349 130.225901,41.0537349 Z" id="路径" fill="#D6DFEE"></path>
                    <path d="M108.167702,59.8099398 C107.969661,59.8079279 107.80281,59.6615145 107.775093,59.4654217 C107.746405,59.2491923 107.895992,59.0497523 108.111615,59.016747 C116.201281,57.7052828 123.77118,54.1839191 129.985528,48.8414458 C132.531252,46.7003997 133.03411,42.9759535 131.147329,40.236506 C131.056593,40.1194617 131.037834,39.9619098 131.098551,39.8268343 C131.159268,39.6917588 131.289556,39.6011976 131.437328,39.591354 C131.585101,39.5815105 131.72625,39.6539907 131.804348,39.7798193 C133.920064,42.8597006 133.35524,47.0419808 130.498323,49.4503614 C124.175273,54.891953 116.467933,58.4750471 108.231801,59.8019277 L108.167702,59.8099398 Z" id="路径" fill="#000000" opacity="0.2"></path>
                    <path d="M5.83304348,67.3572892 C5.83304348,67.3572892 21.7617391,48.7933735 38.9884472,41.0537349 L130.225901,41.0537349 L96.5256522,67.6457229 L5.83304348,67.3572892 Z" id="路径" fill="#D6DFEE"></path>
                    <rect id="矩形" fill="#263238" x="16.5536646" y="67.3572892" width="59.8287578" height="1.73861446"></rect>
                    <path d="M75.1404969,63.8800602 L78.3454658,60.675241 C79.0661384,59.9554843 79.9782858,59.4577198 80.9735404,59.2410843 L105.179068,53.9691566 C106.029856,53.78303 106.913504,53.8105567 107.751056,54.0492771 L109.049068,54.4098193 C110.805534,54.9045803 112.185862,56.2649876 112.706044,58.014018 C113.226226,59.7630485 112.813672,61.6566299 111.613043,63.0307831 L106.404969,68.9837349 C105.507083,70.007911 104.251528,70.6499915 102.895528,70.7784337 L79.3950932,72.9096386 C77.8235503,73.0594051 76.2669614,72.5014087 75.1485093,71.3873494 L75.1485093,71.3873494 C73.0794676,69.3138478 73.075886,65.9579732 75.1404969,63.8800602 L75.1404969,63.8800602 Z" id="路径" fill="#FFFFFF"></path>
                    <path d="M18.2442857,65.5786145 L15.5921739,60.6191566 C15.2188022,59.9245931 14.665257,59.3433979 13.9896894,58.9366265 L13.9896894,58.9366265 C12.6847288,58.1538617 11.0659887,58.1083083 9.71906832,58.8164458 L7.70795031,59.8740361 C6.72022954,60.3963822 5.96931336,61.2762314 5.60869565,62.3337349 L4.38279503,65.9631928 C3.9702133,67.1725793 4.10810605,68.5019919 4.76012126,69.6009639 C5.41213647,70.6999358 6.51283679,71.4581724 7.77204969,71.6757831 L13.3086335,72.6292169 C15.1606192,72.9497379 17.009942,72.0493243 17.8997516,70.3938554 L18.268323,69.7128313 C18.95747,68.4187436 18.9484339,66.864602 18.2442857,65.5786145 Z" id="路径" fill="#FFFFFF"></path>
                    <path d="M148.862795,42.119338 L233.217578,42.119338 C234.667707,42.1201356 236.032662,41.4346273 236.897932,40.2709882 C237.763202,39.107349 238.026692,37.6028793 237.608385,36.2144578 C235.685404,29.8048193 231.999689,19.781747 226.463106,14.6700602 C225.847654,14.1069369 225.092182,13.7195336 224.275714,13.5483735 C214.332298,11.4412048 198.347516,10.0390964 186.48913,9.22186747 C175.611475,8.47757985 164.952603,12.5289914 157.315901,20.3105422 C152.803962,24.8681873 148.729183,29.8387028 145.145031,35.1568675 C144.229998,36.5298402 144.143974,38.2946922 144.921143,39.7501397 C145.698311,41.2055872 147.212794,42.1158932 148.862795,42.119338 Z" id="路径" fill="#FFFFFF" opacity="0.4"></path>
                    <path d="M94.322236,92.595241 C94.322236,95.2231928 91.6300621,97.3624096 88.3129193,97.3624096 C84.9957764,97.3624096 82.3036025,95.2231928 82.3036025,92.595241 C82.3036025,89.9672892 84.987764,87.8360843 88.3129193,87.8360843 C91.6380745,87.8360843 94.322236,89.9672892 94.322236,92.595241 Z" id="路径" fill="#263238"></path>
                    <path d="M45.9031677,63.7198193 C47.8742236,63.7198193 48.8357143,65.7388554 48.0504969,68.2225904 C47.2652795,70.7063253 45.0378261,72.7333735 43.0587578,72.7333735 C41.0796894,72.7333735 40.1262112,70.7143373 40.9114286,68.2225904 C41.696646,65.7308434 43.9321118,63.7198193 45.9031677,63.7198193 Z" id="路径" fill="#263238"></path>
                    <path d="M5.47248447,92.595241 C5.47248447,95.2231928 4.67124224,97.3624096 3.78186335,97.3624096 C2.89248447,97.3624096 2.08322981,95.2231928 2.08322981,92.595241 C2.08322981,89.9672892 2.88447205,87.8360843 3.78186335,87.8360843 C4.67925466,87.8360843 5.47248447,89.9672892 5.47248447,92.595241 Z" id="路径" fill="#263238"></path>
                    <path d="M146.266767,41.3581928 L146.266767,38.6581325 C146.264953,37.0889343 146.970827,35.6025712 148.188143,34.6122851 C149.405459,33.621999 151.004427,33.2333745 152.540497,33.5544578 L162.812422,35.6936747 C165.229572,36.1981174 166.961836,38.3282343 166.962857,40.7973494 L166.962857,41.3581928 C166.962857,44.2356975 164.632418,46.569616 161.754783,46.5740361 L151.482857,46.5740361 C150.099465,46.5740361 148.772733,46.0245114 147.794527,45.046351 C146.816321,44.0681906 146.266767,42.7415204 146.266767,41.3581928 Z" id="路径" fill="#263238"></path>
                    <path d="M200.310559,10.3435542 C200.310559,10.3435542 198.940435,10.2073494 196.552733,9.99903614 C207.113106,31.6315663 204.420932,42.1193373 204.420932,42.1193373 L212.481429,42.1193373 C212.561553,28.9475301 200.310559,10.3435542 200.310559,10.3435542 Z" id="路径" fill="#263238"></path>
                    <path d="M111.244472,32.4327711 C110.906251,35.9553863 107.948852,38.6456963 104.409876,38.6501205 L62.8814907,38.6501205 C59.852795,38.6501205 58.7550932,35.2690361 60.9504969,32.753253 C64.9119258,28.2424521 69.2138876,24.0424763 73.8184472,20.1903614 C81.6385714,13.6044578 91.3496273,10.1833133 100.427702,10.8162651 L103.857019,11.0646386 C106.896617,11.3016805 109.419101,13.507936 110.058634,16.4887952 C111.270482,21.7110096 111.670453,27.088754 111.244472,32.4327711 Z" id="路径" fill="#D6DFEE" opacity="0.2"></path>
                    <path d="M205.382422,105.013916 C205.161165,105.013916 204.981801,104.83456 204.981801,104.613313 C204.981801,96.5051205 209.116211,63.0708434 210.197888,58.0633133 C211.247516,53.2 211.247516,47.7678313 210.197888,44.2345181 C210.135936,44.0221213 210.257904,43.7997201 210.470311,43.7377711 C210.682192,43.6804152 210.901538,43.8006957 210.967081,44.0101807 C212.048758,47.6636747 212.048758,53.2480723 210.967081,58.2315663 C209.885404,63.2150602 205.767019,96.5371687 205.767019,104.613313 C205.767191,104.82845 205.597397,105.00531 205.382422,105.013916 Z" id="路径" fill="#000000" opacity="0.2"></path>
                    <path d="M204.31677,58.4879518 L194.549627,58.4879518 C194.174052,58.5001352 193.814136,58.3371249 193.575584,58.0467964 C193.337033,57.7564679 193.24693,57.3717833 193.331739,57.0057229 L193.53205,55.8760241 C193.698441,55.0389553 194.417856,54.4256576 195.270745,54.3937952 L205.037888,54.3937952 C205.413463,54.3816118 205.77338,54.5446221 206.011931,54.8349506 C206.250482,55.1252791 206.340585,55.5099637 206.255776,55.8760241 L206.055466,57.0057229 C205.889075,57.8427916 205.16966,58.4560894 204.31677,58.4879518 Z" id="路径" fill="#000000" opacity="0.2"></path>
                </g>
                <g id="freepik--Pin--inject-98" transform="translate(253.000000, 42.000000)" fill="#D6DFEE">
                    <path d="M41.9030769,22.1480597 L41.0953846,22.1480597 C41.0956724,20.0960169 40.7991542,18.0546746 40.215,16.0871642 L41.0226923,15.8614925 C41.6185618,17.9036567 41.9150971,20.021128 41.9030769,22.1480597 L41.9030769,22.1480597 Z M38.4219231,11.8397015 C34.6548218,5.09390714 27.527409,0.907349301 19.7884615,0.894626866 L19.7884615,0.0886567164 C27.8223699,0.0966560682 35.2219311,4.4455012 39.1246154,11.4528358 L38.4219231,11.8397015 Z" id="形状"></path>
                    <path d="M19.7884615,2.90955224 C9.14377835,2.91400217 0.516923077,11.5260721 0.516923077,22.1480597 C0.516923077,40.6853731 19.7884615,53.3874627 19.7884615,53.3874627 C19.7884615,53.3874627 39.0761538,40.6773134 39.0761538,22.1480597 C39.0716944,11.5216218 30.4376064,2.90955224 19.7884615,2.90955224 L19.7884615,2.90955224 Z M19.7884615,31.2071678 C14.8202271,31.2027139 10.7958752,27.1809307 10.7988461,22.2232884 C10.8018203,17.2656462 14.8309922,13.2486712 19.7992284,13.2501529 C24.7674645,13.2516354 28.7942308,17.2710136 28.7942308,22.2286567 C28.7942308,24.611302 27.8451547,26.8962428 26.1560127,28.5802715 C24.4668708,30.2643001 22.176197,31.209303 19.7884615,31.2071678 Z" id="形状"></path>
                </g>
            </g>
        </g>
    </g>
</svg>