<?xml version="1.0" encoding="UTF-8"?>
<svg width="36px" height="36px" viewBox="0 0 36 36" version="1.1" xmlns="http://www.w3.org/2000/svg" xmlns:xlink="http://www.w3.org/1999/xlink">
    <title>编组</title>
    <g id="页面-1" stroke="none" stroke-width="1" fill="none" fill-rule="evenodd">
        <g id="3.2首页" transform="translate(-603.000000, -68.000000)" fill="#9BA1B0" fill-rule="nonzero">
            <g id="顶部导航" transform="translate(34.000000, 65.000000)">
                <g id="编组" transform="translate(569.000000, 3.000000)">
                    <path d="M16.2178309,32.3667279 C14.0349265,32.3667279 11.9163603,31.9393382 9.921875,31.09375 C7.99632353,30.2803309 6.26378676,29.1130515 4.77941176,27.6286765 C3.29503676,26.1443015 2.12775735,24.4117647 1.31433824,22.4862132 C0.46875,20.4917279 0.0413602941,18.3731618 0.0413602941,16.1902574 C0.0413602941,14.0073529 0.46875,11.8887868 1.31433824,9.89430147 C2.12775735,7.96875 3.29503676,6.23621324 4.77941176,4.75183824 C6.26378676,3.26746324 7.99632353,2.10018382 9.921875,1.28676471 C11.9163603,0.441176471 14.0349265,0.0137867647 16.2178309,0.0137867647 C18.4007353,0.0137867647 20.5193015,0.441176471 22.5137868,1.28676471 C24.4393382,2.10018382 26.171875,3.26746324 27.65625,4.75183824 C29.140625,6.23621324 30.3079044,7.96875 31.1213235,9.89430147 C31.9669118,11.8887868 32.3943015,14.0073529 32.3943015,16.1902574 C32.3943015,18.3731618 31.9669118,20.4917279 31.1213235,22.4862132 C30.3079044,24.4117647 29.140625,26.1443015 27.65625,27.6286765 C26.171875,29.1130515 24.4393382,30.2803309 22.5137868,31.09375 C20.5238971,31.9393382 18.4053309,32.3667279 16.2178309,32.3667279 Z M16.2178309,2.95496324 C8.92003676,2.95496324 2.98253676,8.89246324 2.98253676,16.1902574 C2.98253676,23.4880515 8.92003676,29.4255515 16.2178309,29.4255515 C23.515625,29.4255515 29.453125,23.4880515 29.453125,16.1902574 C29.453125,8.89246324 23.515625,2.95496324 16.2178309,2.95496324 Z M33.4742647,35.4963235 L29.3152574,31.3373162 C28.7408088,30.7628676 28.7408088,29.8299632 29.3152574,29.2555147 C29.8897059,28.6810662 30.8226103,28.6810662 31.3970588,29.2555147 L35.5560662,33.4145221 C36.1305147,33.9889706 36.1305147,34.921875 35.5560662,35.4963235 C34.9816176,36.0707721 34.0487132,36.0707721 33.4742647,35.4963235 Z" id="形状"></path>
                </g>
            </g>
        </g>
    </g>
</svg>