<?xml version="1.0" encoding="UTF-8"?>
<svg width="26px" height="26px" viewBox="0 0 26 26" version="1.1" xmlns="http://www.w3.org/2000/svg" xmlns:xlink="http://www.w3.org/1999/xlink">
    <title>分享</title>
    <g id="页面-1" stroke="none" stroke-width="1" fill="none" fill-rule="evenodd">
        <g id="3.7首页-公开课详情" transform="translate(-681.000000, -471.000000)" fill="#4C4C4C" fill-rule="nonzero">
            <g id="分享" transform="translate(681.000000, 471.000000)">
                <path d="M5.2564249,26 C2.36093661,26 0.0148486579,23.6377143 0,20.7405714 L0,5.25942857 C0,2.36228571 2.36093661,0.0148571429 5.2564249,0 L12.9925757,0 C13.6607653,0 14.2101656,0.549714286 14.2101656,1.21828571 C14.2101656,1.88685714 13.6607653,2.43657143 12.9925757,2.43657143 L5.2564249,2.43657143 C3.69731582,2.43657143 2.4351799,3.71428571 2.4351799,5.25942857 L2.4351799,20.7405714 C2.4351799,22.3005714 3.71216448,23.5634286 5.2564249,23.5634286 L20.7435751,23.5634286 C22.3026842,23.5634286 23.5648201,22.2857143 23.5648201,20.7405714 L23.5648201,13 C23.5648201,12.3314286 24.1142204,11.7817143 24.7824101,11.7817143 C25.4505997,11.7817143 26,12.3314286 26,13 L26,20.7405714 C26,23.6377143 23.6390634,25.9851429 20.7435751,26 L5.2564249,26 Z" id="路径"></path>
                <path d="M20.8694138,26 L5.13058619,26 C2.29367382,26 0,23.7049942 0,20.8664344 L0,5.13356562 C0,2.29500581 2.29367382,0 5.13058619,0 L12.992455,0 C13.5658735,0 14.0185723,0.452961672 14.0185723,1.02671312 C14.0185723,1.60046458 13.5658735,2.05342625 12.992455,2.05342625 L5.13058619,2.05342625 C3.42542078,2.05342625 2.05223447,3.42740999 2.05223447,5.13356562 L2.05223447,20.8815331 C2.05223447,22.5876887 3.42542078,23.9616725 5.13058619,23.9616725 L20.8694138,23.9616725 C22.5745792,23.9616725 23.9477655,22.5876887 23.9477655,20.8815331 L23.9477655,13 C23.9477655,12.4262485 24.4004643,11.9732869 24.9738828,11.9732869 C25.5473012,11.9732869 26,12.4262485 26,13 L26,20.8664344 C25.98491,23.7049942 23.6912362,26 20.8694138,26 Z" id="路径"></path>
                <path d="M12.1741243,14 C11.8591153,14 11.5727435,13.8711656 11.3436461,13.6564417 C11.1288673,13.4417178 11,13.1411043 11,12.8404908 C11,12.5255624 11.1145487,12.2392638 11.3293275,12.0102249 L23.0276144,0.314928425 C23.2567118,0.114519427 23.528765,0 23.8294554,0 C24.1587829,0 24.4594733,0.128834356 24.6885707,0.372188139 C25.1038098,0.81595092 25.1038098,1.51738241 24.6885707,1.96114519 L13.0046024,13.6421268 C12.775505,13.8854806 12.4891332,14 12.1741243,14 Z" id="路径"></path>
                <path d="M13.0072582,14 C12.7421002,14 12.4916732,13.896996 12.3001702,13.7057028 C11.9024332,13.3231164 11.9024332,12.6903775 12.2854392,12.2930762 L12.3001702,12.2783614 L24.320666,0.271035689 C24.718403,-0.111550669 25.351836,-0.082120949 25.734842,0.315180269 C26.088386,0.697766627 26.088386,1.30107588 25.734842,1.68366224 L13.7143462,13.6909879 C13.5228432,13.8822811 13.2724162,14 13.0072582,14 L13.0072582,14 Z" id="路径"></path>
                <path d="M19.2447818,2 C18.5616698,2 18,1.54878049 18,1 C18,0.451219512 18.5616698,0 19.2447818,0 L24.7552182,0 C25.4383302,0 26,0.451219512 26,1 C26,1.54878049 25.4383302,2 24.7552182,2 L19.2447818,2 Z" id="路径"></path>
                <path d="M24.9098196,2 L19.0901804,2 C18.4809619,2 18,1.55882353 18,1 C18,0.441176471 18.4809619,0 19.0901804,0 L24.9098196,0 C25.5190381,0 26,0.441176471 26,1 C26,1.55882353 25.503006,2 24.9098196,2 Z" id="路径"></path>
                <path d="M24,8 C23.4512195,8 23,7.43726236 23,6.75285171 L23,1.24714829 C23,0.562737643 23.4512195,0 24,0 C24.5487805,0 25,0.562737643 25,1.24714829 L25,6.76806084 C24.9878049,7.45247148 24.5487805,8 24,8 L24,8 Z" id="路径"></path>
                <path d="M25,8 C24.4411765,8 24,7.51807229 24,6.90763052 L24,1.09236948 C24,0.481927711 24.4411765,0 25,0 C25.5588235,0 26,0.481927711 26,1.09236948 L26,6.92369478 C26,7.51807229 25.5441176,8 25,8 L25,8 Z" id="路径"></path>
            </g>
        </g>
    </g>
</svg>