<?xml version="1.0" encoding="UTF-8"?>
<svg width="36px" height="37px" viewBox="0 0 36 37" version="1.1" xmlns="http://www.w3.org/2000/svg" xmlns:xlink="http://www.w3.org/1999/xlink">
    <title>编组</title>
    <g id="页面-1" stroke="none" stroke-width="1" fill="none" fill-rule="evenodd">
        <g id="3.2首页" transform="translate(-680.000000, -68.000000)" fill="#9BA1B0" fill-rule="nonzero">
            <g id="顶部导航" transform="translate(34.000000, 65.000000)">
                <g id="编组" transform="translate(646.000000, 3.000000)">
                    <path d="M35.4799183,6.72218189 C35.083252,6.27887633 34.5111521,6.02451881 33.9102532,6.02436631 L8.19347143,6.01754329 C8.01660176,6.01750518 7.8669398,5.88920194 7.84295354,5.71713993 L7.31564358,1.9349773 C7.16392455,0.84672503 6.20610363,0.0223596475 5.08771438,0.0174806252 L1.12726181,1.13622152e-05 C0.508198511,-0.00272163267 0.00409856849,0.487925751 0.00130405257,1.09589857 L1.15694809e-05,1.37183057 C-0.00277127999,1.97980338 0.496826365,2.4748724 1.1159285,2.47761686 L4.84719177,2.49404546 L7.80289878,23.6939239 C7.85362703,25.5254277 9.3864588,27 11.2634043,27 L30.4983412,27 C32.3770333,27 33.9109907,25.5227595 33.959002,23.6888924 L35.9826986,8.34072368 C36.0598583,7.75546883 35.8765845,7.16552556 35.4799183,6.72218189 Z M33.2887059,9.4792528 L31.4478562,23.4411292 L31.4373768,23.5203372 L31.4373768,23.6002313 C31.4373768,24.1095562 31.0169571,24.522406 30.49838,24.522406 L11.2634432,24.522406 C10.7448273,24.522406 10.3244464,24.1095181 10.3244464,23.6002313 L10.3244464,23.5158012 L8.36746898,9.47936715 C8.29488913,8.95891193 8.70684761,8.49548032 9.24172607,8.49548032 L32.4140607,8.50161725 C32.9461446,8.50173164 33.3570164,8.96100839 33.2887059,9.4792528 Z" id="形状"></path>
                    <path d="M12.5,30 C10.570089,30 9,31.570089 9,33.5 C9,35.429911 10.570089,37 12.5,37 C14.429911,37 16,35.429911 16,33.5 C16,31.570089 14.429911,30 12.5,30 Z M12.5,34.617801 C11.8836335,34.617801 11.382199,34.1163298 11.382199,33.5 C11.382199,32.8836702 11.8836335,32.382199 12.5,32.382199 C13.1163665,32.382199 13.617801,32.8836702 13.617801,33.5 C13.617801,34.1163298 13.1163665,34.617801 12.5,34.617801 Z" id="形状"></path>
                    <path d="M29.5,30 C27.570089,30 26,31.570089 26,33.5 C26,35.429911 27.570089,37 29.5,37 C31.429911,37 33,35.429911 33,33.5 C33,31.570089 31.429911,30 29.5,30 Z M29.5,34.617801 C28.8836702,34.617801 28.382199,34.1163298 28.382199,33.5 C28.382199,32.8836702 28.8836702,32.382199 29.5,32.382199 C30.1163298,32.382199 30.617801,32.8836702 30.617801,33.5 C30.617801,34.1163298 30.1163665,34.617801 29.5,34.617801 Z" id="形状"></path>
                </g>
            </g>
        </g>
    </g>
</svg>