<?xml version="1.0" encoding="UTF-8"?>
<svg width="30px" height="30px" viewBox="0 0 30 30" version="1.1" xmlns="http://www.w3.org/2000/svg" xmlns:xlink="http://www.w3.org/1999/xlink">
    <title>循环 (1)</title>
    <g id="页面-1" stroke="none" stroke-width="1" fill="none" fill-rule="evenodd">
        <g id="6我的-首页" transform="translate(-534.000000, -90.000000)" fill="#FFFFFF" fill-rule="nonzero">
            <g id="循环-(1)" transform="translate(534.000000, 90.000000)">
                <path d="M2.38869864,11.3829787 C2.17465752,12.6595745 2.17465752,13.7234043 2.17465752,15 L2.17465752,18.1914894 C2.17465752,18.8297872 1.74657532,19.2553191 1.10445203,19.2553191 C0.462328745,19.2553191 0.0342465737,18.8297872 0.0342465737,18.1914894 L0.0342465737,14.3617021 C0.0342465737,12.6595745 -0.179794512,10.9574468 0.462328745,9.46808511 C1.96061643,6.4893617 5.59931507,4.14893617 8.8099315,4.14893617 L24.2208904,4.14893617 L22.0804795,1.80851063 C21.6523973,1.38297871 21.6523973,0.744680837 22.0804795,0.319148943 C22.5085617,-0.106382981 23.150685,-0.106382981 23.5787671,0.319148943 L27.645548,4.57446809 C28.0736302,5 28.0736302,5.63829789 27.645548,6.06382978 L23.5787671,10.3191489 C23.364726,10.5319149 23.1506849,10.7446809 22.7226028,10.7446809 C22.5085617,10.7446809 22.0804795,10.7446809 21.8664384,10.5319149 C21.4383562,10.106383 21.4383562,9.46808511 21.8664384,9.04255319 L24.4349315,6.4893617 L15.2311644,6.4893617 C11.1643835,6.4893617 6.24143833,5.63829789 3.24486301,9.25531916 C2.81678081,9.89361703 2.60273972,10.7446809 2.38869864,11.3829787 Z M28.9297945,10.7446809 C29.5719178,10.7446809 30,11.1702128 30,11.8085106 L30,18.6170213 C30,22.2340426 25.2910959,25.8510638 21.8664384,25.8510638 L5.81335616,25.8510638 L7.95376713,28.1914894 C8.38184933,28.6170213 8.38184933,29.2553192 7.95376713,29.6808511 C7.52568493,30.106383 6.88356164,30.106383 6.45547944,29.6808511 L2.38869864,25.4255319 C1.96061643,25 1.96061643,24.3617021 2.38869864,23.9361702 L6.45547944,19.6808511 C6.66952053,19.4680851 7.09760273,19.2553191 7.31164384,19.2553191 C7.52568493,19.2553191 7.95376713,19.2553191 8.16780822,19.4680851 C8.59589042,19.893617 8.59589042,20.5319149 8.16780822,20.9574468 L5.59931507,23.5106383 L21.6523973,23.5106383 C23.5787671,23.2978723 25.505137,22.2340426 26.5753425,20.7446809 C27.8595891,19.0425532 27.645548,17.1276596 27.645548,15 L27.645548,11.8085106 C27.8595891,11.1702128 28.2876713,10.7446809 28.9297945,10.7446809 Z" id="形状"></path>
            </g>
        </g>
    </g>
</svg>