<?xml version="1.0" encoding="UTF-8"?>
<svg width="64px" height="43px" viewBox="0 0 64 43" version="1.1" xmlns="http://www.w3.org/2000/svg" xmlns:xlink="http://www.w3.org/1999/xlink">
    <title>编组</title>
    <g id="页面-1" stroke="none" stroke-width="1" fill="none" fill-rule="evenodd">
        <g id="6我的-首页" transform="translate(-436.000000, -449.000000)" fill-rule="nonzero">
            <g id="编组" transform="translate(436.000000, 449.000000)">
                <path d="M63.0018271,37.0750378 C62.3719443,34.5487336 61.9249307,31.9817918 61.6472404,29.4013042 C61.5998299,28.9407447 61.2476373,28.5750063 60.7938508,28.507277 C43.5905998,25.8861517 25.9741998,25.9471081 8.79126764,28.6901462 C8.3374811,28.7646484 7.99206149,29.1303868 7.94465096,29.5841734 C7.66696069,32.1037046 7.22672001,34.60969 6.61038306,37.0750378 C5.77731225,40.4411857 8.6219443,43.5499622 11.91359,42.8794418 C27.0307775,39.7977571 42.5814327,39.7977571 57.6986202,42.8794418 C60.9902659,43.5499622 63.8348979,40.4344128 63.0018271,37.0750378 L63.0018271,37.0750378 Z" id="路径" fill="#FFE1E3"></path>
                <path d="M61.8368826,8.04624496 C62.3854902,5.89922505 61.8097908,3.65738407 60.2858808,2.04542591 C58.7619708,0.433467742 56.5607674,-0.270917339 54.3866557,0.15577747 C46.7196951,1.67291457 38.8630922,2.43825605 31.047127,2.43825605 C23.2311618,2.43825605 15.374559,1.67291457 7.70082535,0.15577747 C5.52671371,-0.270917339 3.3187374,0.433467742 1.8016003,2.04542591 C0.277690272,3.65738407 -0.298009073,5.89922505 0.250598538,8.04624496 C0.460559476,8.87254284 0.656974546,9.71238659 0.833070817,10.5522303 C1.02271295,11.4665764 1.91674017,12.0558216 2.83108619,11.8661794 C3.74543221,11.6765373 4.33467742,10.7825101 4.14503528,9.86816406 C3.96216608,8.98090978 3.75220514,8.08688256 3.52869834,7.20640121 C3.26455393,6.17691532 3.52869834,5.14742944 4.26017515,4.37531502 C4.99165197,3.6032006 6.00081905,3.2780998 7.04385081,3.4812878 C14.9275454,5.0390625 23.007655,5.82472278 31.0403541,5.82472278 C39.0730532,5.82472278 47.1531628,5.0390625 55.0368574,3.4812878 C56.0798891,3.2780998 57.0958291,3.6032006 57.820533,4.37531502 C58.5520098,5.14742944 58.8161542,6.17691532 58.5520098,7.20640121 C56.1747102,16.4582283 56.1747102,26.2315713 58.5520098,35.4833984 C58.8161542,36.5128843 58.5520098,37.5423702 57.820533,38.3144846 C57.0890562,39.086599 56.0798891,39.4116998 55.0368574,39.2085118 C47.1531628,37.6507371 39.0730532,36.8650769 31.0403541,36.8650769 C23.007655,36.8650769 14.9343183,37.6507371 7.04385081,39.2085118 C6.00081905,39.4116998 4.98487903,39.086599 4.26017515,38.3144846 C3.52869834,37.5423702 3.26455393,36.5128843 3.52869834,35.4833984 C5.11356477,29.313256 5.64862651,22.9670174 5.1203377,16.6140058 C5.04583543,15.679341 4.22631048,14.9885018 3.29164567,15.069777 C2.35698085,15.1442792 1.66614163,15.9638042 1.74741683,16.898469 C2.24861391,22.8721963 1.7406439,28.8391507 0.250598538,34.6435547 C-0.298009073,36.7905746 0.277690272,39.0324156 1.8016003,40.6443737 C3.02750126,41.944777 4.70718876,42.6562922 6.44783266,42.6562922 C6.8609816,42.6562922 7.28090348,42.6152974 7.70082535,42.5340222 C15.374559,41.023658 23.2243889,40.2515436 31.047127,40.2515436 C38.8698652,40.2515436 46.7196951,41.0168851 54.3934287,42.5340222 C56.5675403,42.960717 58.7755166,42.2563319 60.2926537,40.6443737 C61.8165638,39.0324156 62.3922631,36.7905746 61.8436555,34.6435547 C59.6018145,25.9403352 59.6018145,16.7494645 61.8368826,8.04624496 Z" id="路径" fill="#3F3F3F"></path>
                <path d="M18.219191,17.9076361 L43.8886089,17.9076361 C44.8232737,17.9076361 45.5818422,17.1490675 45.5818422,16.2144027 C45.5818422,15.2797379 44.8232737,14.5211694 43.8886089,14.5211694 L18.219191,14.5211694 C17.2845262,14.5211694 16.5259577,15.2797379 16.5259577,16.2144027 C16.5259577,17.1490675 17.2845262,17.9076361 18.219191,17.9076361 Z M18.219191,28.1347656 L43.8886089,28.1347656 C44.8232737,28.1347656 45.5818422,27.3761971 45.5818422,26.4415323 C45.5818422,25.5068674 44.8232737,24.7482989 43.8886089,24.7482989 L18.219191,24.7482989 C17.2845262,24.7482989 16.5259577,25.5068674 16.5259577,26.4415323 C16.5259577,27.3761971 17.2845262,28.1347656 18.219191,28.1347656 Z" id="形状" fill="#3F3F3F"></path>
            </g>
        </g>
    </g>
</svg>