<?xml version="1.0" encoding="UTF-8"?>
<svg width="46px" height="40px" viewBox="0 0 46 40" version="1.1" xmlns="http://www.w3.org/2000/svg" xmlns:xlink="http://www.w3.org/1999/xlink">
    <title>订单</title>
    <g id="页面-1" stroke="none" stroke-width="1" fill="none" fill-rule="evenodd">
        <g id="6我的-首页" transform="translate(-51.000000, -592.000000)" fill="#3F3F3F" fill-rule="nonzero">
            <g id="我的订单" transform="translate(0.000000, 554.000000)">
                <g id="编组" transform="translate(51.000000, 38.000000)">
                    <path d="M40.1293527,3.65997768 C43.3618281,3.65997768 45.7946429,6.8441942 45.7946429,10.6016138 L45.7946429,32.8464129 L45.7939241,32.9589487 C45.7458705,36.6671853 43.3294844,39.7879464 40.1293013,39.7879464 L5.66534152,39.7879464 L5.56856696,39.786971 C2.38440179,39.724183 0,36.5662522 0,32.8464129 L0,10.6015625 L0.00071875,10.4890268 C0.0487209821,6.78079018 2.46515848,3.65997768 5.66534152,3.65997768 C6.51269643,3.65997768 7.19966741,4.34715402 7.19966741,5.19481696 C7.19966741,6.04253125 6.51274777,6.72965625 5.66534152,6.72965625 L5.62539955,6.73016964 C4.30967634,6.76287277 3.06870313,8.40901562 3.06870313,10.6015625 L3.06870313,32.8463616 L3.06911384,32.9125893 C3.09406473,35.0939955 4.3481808,36.7182165 5.66534152,36.7182165 L40.1293013,36.7182165 L40.1692433,36.7177031 C41.4849665,36.685 42.7259397,35.0388571 42.7259397,32.8463103 L42.7259397,10.6015625 L42.725529,10.5353348 C42.7005781,8.35392857 41.4464621,6.72970759 40.1293013,6.72970759 L40.0931071,6.72929687 C39.2624375,6.71004464 38.5949754,6.03046652 38.5949754,5.1948683 C38.5949754,4.3472567 39.2818951,3.65997768 40.1293013,3.65997768 L40.1293527,3.65997768 Z M14.3988214,29.9885603 C15.246433,29.9885603 15.9336607,30.6757366 15.9336607,31.5233996 C15.9336607,32.3710625 15.2464844,33.0582388 14.3988214,33.0582388 L8.49839732,33.0582388 C7.65078571,33.0582388 6.96355804,32.3710625 6.96355804,31.5233996 C6.96355804,30.6757366 7.65073437,29.9885603 8.49839732,29.9885603 L14.3988214,29.9885603 Z M25.9655112,29.9885603 C26.8131228,29.9885603 27.5003504,30.6757366 27.5003504,31.5233996 C27.5003504,32.3710625 26.8131741,33.0582388 25.9655112,33.0582388 L20.0650871,33.0582388 C19.2174754,33.0582388 18.5302478,32.3710625 18.5302478,31.5233996 C18.5302478,30.6757366 19.2174241,29.9885603 20.0650871,29.9885603 L25.9655112,29.9885603 Z M37.5322009,29.9885603 C38.3798125,29.9885603 39.0670402,30.6757366 39.0670402,31.5233996 C39.0670402,32.3710625 38.3798638,33.0582388 37.5322009,33.0582388 L31.6317768,33.0582388 C30.7841652,33.0582388 30.0969375,32.3710625 30.0969375,31.5233996 C30.0969375,30.6757366 30.7841138,29.9885603 31.6317768,29.9885603 L37.5322009,29.9885603 L37.5322009,29.9885603 Z M14.3988214,22.1962835 C15.246433,22.1962835 15.9336607,22.8834085 15.9336607,23.7311228 C15.9336607,24.5787344 15.2464844,25.2659621 14.3988214,25.2659621 L8.49839732,25.2659621 C7.65078571,25.2659621 6.96355804,24.5787857 6.96355804,23.7311228 C6.96355804,22.8834085 7.65073437,22.1962321 8.49839732,22.1962321 L14.3988214,22.1962321 L14.3988214,22.1962835 Z M25.9655112,22.1962835 C26.8131228,22.1962835 27.5003504,22.8834085 27.5003504,23.7311228 C27.5003504,24.5787344 26.8131741,25.2659621 25.9655112,25.2659621 L20.0650871,25.2659621 C19.2174754,25.2659621 18.5302478,24.5787857 18.5302478,23.7311228 C18.5302478,22.8834085 19.2174241,22.1962321 20.0650871,22.1962321 L25.9655112,22.1962321 L25.9655112,22.1962835 Z M37.5322009,22.1962835 C38.3798125,22.1962835 39.0670402,22.8834085 39.0670402,23.7311228 C39.0670402,24.5787344 38.3798638,25.2659621 37.5322009,25.2659621 L31.6317768,25.2659621 C30.7841652,25.2659621 30.0969375,24.5787857 30.0969375,23.7311228 C30.0969375,22.8834085 30.7841138,22.1962321 31.6317768,22.1962321 L37.5322009,22.1962321 L37.5322009,22.1962835 Z M14.6324665,12.5638013 C15.17425,12.026279 16.0488147,12.026279 16.5905982,12.5638013 C17.1310469,13.1064576 17.1310469,13.9797388 16.5905982,14.5223951 L11.6952433,19.4147723 C11.5413037,19.5639151 11.3541319,19.6743494 11.1491473,19.7369777 C10.6854166,19.9325324 10.1495767,19.8299497 9.79086384,19.4769442 L7.16496205,16.8541228 C6.72252009,16.3636786 6.74208036,15.6130469 7.20942188,15.1462188 C7.67681473,14.679442 8.4283192,14.6598817 8.91932812,15.1018103 L10.5067902,16.6930201 L14.6324152,12.566625 L14.6324665,12.5638013 Z M25.9655625,14.403904 C26.8131741,14.403904 27.5004018,15.0910804 27.5004018,15.9387433 C27.5004018,16.7864063 26.8132254,17.4735826 25.9655625,17.4735826 L20.0651384,17.4735826 C19.2175268,17.4735826 18.5302991,16.7864063 18.5302991,15.9387433 C18.5302991,15.0910804 19.2174754,14.403904 20.0651384,14.403904 L25.9655625,14.403904 Z M37.5322522,14.403904 C38.3798638,14.403904 39.0670915,15.0910804 39.0670915,15.9387433 C39.0670915,16.7864063 38.3799152,17.4735826 37.5322522,17.4735826 L31.6318281,17.4735826 C30.7842165,17.4735826 30.0969888,16.7864063 30.0969888,15.9387433 C30.0969888,15.0910804 30.7841652,14.403904 31.6318281,14.403904 L37.5322522,14.403904 L37.5322522,14.403904 Z M12.187279,-2.34432886e-05 C13.0225692,-0.00456919643 13.7056384,0.659350446 13.7295112,1.49017411 L13.7300759,1.5263683 L13.7702979,8.80160714 C13.7748951,9.64921875 13.0917746,10.3402455 12.2444196,10.34489 C11.4091295,10.3494866 10.7260603,9.68556696 10.7021875,8.8547433 L10.7015714,8.81854911 L10.6613495,1.54336161 C10.6567522,0.695698661 11.3398728,0.00472321429 12.187279,-2.34432886e-05 L12.187279,-2.34432886e-05 Z M32.7240201,-2.34432886e-05 C33.5593103,-0.00456919643 34.2424308,0.659350446 34.2662522,1.49017411 L34.2668683,1.5263683 L34.3070903,8.80160714 C34.3116875,9.64921875 33.628567,10.3402455 32.7811607,10.34489 C31.9458705,10.3494866 31.2628013,9.68556696 31.2389799,8.8547433 L31.2383638,8.81854911 L31.1981419,1.54336161 C31.1935446,0.695698661 31.8766652,0.00472321429 32.7240714,-2.34432886e-05 L32.7240201,-2.34432886e-05 Z M28.7195558,3.66002902 C29.5669107,3.66002902 30.2538817,4.34720536 30.2538817,5.1948683 C30.2538817,6.03046652 29.5864196,6.71004464 28.75575,6.72929688 L28.7195045,6.72970759 L17.1140022,6.72970759 C16.266596,6.72970759 15.579625,6.04258259 15.579625,5.1948683 C15.579625,4.35932143 16.2470871,3.67969196 17.0777567,3.66043973 L17.1140022,3.66002902 L28.7195045,3.66002902 L28.7195558,3.66002902 Z" id="形状"></path>
                </g>
            </g>
        </g>
    </g>
</svg>