<?xml version="1.0" encoding="UTF-8"?>
<svg width="46px" height="46px" viewBox="0 0 46 46" version="1.1" xmlns="http://www.w3.org/2000/svg" xmlns:xlink="http://www.w3.org/1999/xlink">
    <title>编组</title>
    <g id="页面-1" stroke="none" stroke-width="1" fill="none" fill-rule="evenodd">
        <g id="6我的-首页" transform="translate(-52.000000, -1052.000000)" fill="#3F3F3F" fill-rule="nonzero">
            <g id="上课记录" transform="translate(-1.000000, 1018.000000)">
                <g id="编组" transform="translate(53.000000, 34.000000)">
                    <path d="M22.9336499,45.8513047 C22.6644031,45.8513047 22.395173,45.8470214 22.1260888,45.8376616 C21.552237,45.8175105 20.9793251,45.7761749 20.4085242,45.7137392 C19.6281228,45.6281295 19.0188376,45.0028893 18.9548626,44.2224879 C18.8621273,43.1126078 18.411153,42.0947917 17.6499596,41.2800018 C15.842861,39.3402029 12.8524066,39.1770901 10.8502335,40.9097836 C10.258504,41.4215315 9.38701958,41.4423402 8.76658136,40.9585264 C7.38804777,39.8750831 6.13111306,38.6293014 5.03083693,37.2572737 C4.54154993,36.6456133 4.55275458,35.7733028 5.05804822,35.1751706 C5.77772764,34.3252694 6.17902972,33.2881421 6.21744567,32.1743377 C6.30863191,29.5221399 4.31120914,27.2944796 1.66938982,27.1033809 C0.887387751,27.0465832 0.254092583,26.4420999 0.16135731,25.6633508 C0.0219070208,24.4900048 -0.027272847,23.3076856 0.0142510776,22.1268117 C0.0350597162,21.5462868 0.0750246947,20.9738169 0.137398976,20.407698 C0.222079292,19.6272966 0.849023437,19.0180114 1.63097387,18.9532619 C2.73920169,18.8620757 3.75469423,18.4111014 4.57031026,17.649908 C6.5117614,15.8412603 6.67322198,12.8540073 4.94135462,10.8486328 C4.42960668,10.2553543 4.40879804,9.38139143 4.89333468,8.76492906 C5.98075386,7.38484644 7.22498653,6.12796336 8.59551679,5.03088856 C9.20480199,4.53994926 10.0779387,4.55275458 10.6776199,5.05887437 C11.5267466,5.77767601 12.5645968,6.17830684 13.6792789,6.21744567 C16.3835242,6.34219423 18.5583625,4.31048626 18.7502874,1.66784079 C18.806259,0.885890356 19.4106906,0.254144217 20.1894913,0.160634429 C21.3631552,0.02170977 22.5457284,-0.0272102479 23.7268566,0.0143027119 C24.3006906,0.0343205355 24.8735974,0.0753802273 25.4444212,0.137398976 C26.2248226,0.222130927 26.8340562,0.849075072 26.8996318,1.6310255 C26.9908181,2.74002784 27.4401401,3.75712105 28.2013335,4.57191092 C30.0084321,6.51165814 32.9988865,6.6739965 35.004261,4.94130298 C35.5959905,4.42955505 36.4723285,4.40874641 37.0864157,4.8941092 C38.4664983,5.9791532 39.7218323,7.22410875 40.8204562,8.59458737 C41.3114471,9.20624776 41.2985902,10.0793844 40.7916442,10.6775166 C40.0736171,11.5258688 39.6722117,12.5629445 39.6338474,13.6775233 C39.5426612,16.3289467 41.540084,18.556607 44.183504,18.7485318 C44.9671067,18.8060524 45.5988012,19.4097611 45.6914848,20.1885102 C45.8290387,21.3479077 45.8786077,22.5377178 45.837042,23.7242749 C45.8162334,24.3047997 45.7762684,24.8780958 45.7138941,25.4442147 C45.6292138,26.2229638 45.0022697,26.8330752 44.2218683,26.8978246 C43.1136404,26.9897854 42.0949466,27.4407597 41.2793822,28.2011786 C39.3395833,30.0098262 39.1780711,32.9979054 40.9099385,35.0024538 C41.4216864,35.5957323 41.4424951,36.468869 40.9579584,37.085383 C39.8720883,38.4646395 38.6279589,39.7215742 37.2557763,40.8202496 C36.6433414,41.3104144 35.7718054,41.2983836 35.1736732,40.7914377 C34.3260955,40.0734106 33.2898976,39.6736059 32.1736149,39.634467 C29.4646709,39.5177734 27.2945313,41.5406519 27.102658,44.1832974 C27.0466864,44.9652478 26.4422032,45.5977685 25.6634025,45.6905038 C24.7574352,45.7976957 23.8459365,45.8513047 22.9336499,45.8513047 Z M21.98048,42.5538726 C22.0668642,42.5578484 22.1532485,42.5618759 22.2395811,42.5641994 C22.8461813,42.5850081 23.4534011,42.5786571 24.0594334,42.5450947 C24.9773886,38.8533944 28.3213317,36.2347589 32.2888111,36.3610565 C33.6448837,36.4090248 34.9705954,36.7968503 36.1331941,37.4748608 C36.6479548,37.0085042 37.1374561,36.5150041 37.5996094,35.9964664 C35.6374012,32.7381331 36.1651558,28.4923446 39.0469199,25.8057584 C40.0384025,24.8805743 41.2505702,24.2177443 42.5538726,23.8747373 C42.5570739,23.7867524 42.5618759,23.6980446 42.5650772,23.6100597 C42.5858859,23.0042857 42.5795348,22.3978403 42.5459209,21.7926342 C38.853446,20.8762796 36.2243288,17.5004265 36.3618826,13.5640827 C36.4083019,12.2080101 36.7968503,10.8815239 37.4749124,9.71809896 C37.0083996,9.20399306 36.5151788,8.71477088 35.9972926,8.25245824 C32.7381331,10.2138402 28.4939453,9.68608567 25.8057067,6.80597387 C24.8654454,5.79771013 24.2097409,4.60314969 23.8707099,3.29824668 C23.7843772,3.29427083 23.6996453,3.29024335 23.613261,3.28786818 C23.0072288,3.26783405 22.3962397,3.27186153 21.7934088,3.30702452 C20.8770541,6.99949937 17.5571727,9.61261 13.5640827,9.49101114 C12.1855491,9.44226832 10.8774448,9.06167161 9.71484599,8.37880747 C9.20194231,8.84521174 8.71354962,9.3378786 8.25163209,9.85482669 C10.2138402,13.1139862 9.68608567,17.359723 6.80432157,20.0455348 C5.81283899,20.9707188 4.60067125,21.6343234 3.29736889,21.9773303 C3.29416756,22.0653152 3.28936557,22.1532485 3.28616424,22.2411818 C3.2653556,22.8457166 3.27335893,23.4541756 3.30697288,24.0587105 C6.99784707,24.9750135 9.62686108,28.3508666 9.48935884,32.2879849 C9.44293957,33.6656407 9.06234285,34.9745712 8.37792969,36.13717 C8.84414673,36.6500079 9.33682385,37.1381522 9.8539489,37.5996094 C13.1146574,35.6342515 17.3572962,36.165982 20.0455348,39.0460938 C20.9857961,40.0543575 21.6415005,41.2480918 21.9805316,42.5538726 L21.98048,42.5538726 Z M22.9256466,32.7509384 C17.5076037,32.7509384 13.1003031,28.3436378 13.1003031,22.9256466 C13.1003031,17.5076554 17.5076037,13.1003031 22.9256466,13.1003031 C28.3436378,13.1003031 32.7509384,17.5076037 32.7509384,22.9256466 C32.7509384,28.3436378 28.3436378,32.7509384 22.9256466,32.7509384 L22.9256466,32.7509384 Z M22.9256466,16.3754176 C19.31305,16.3754176 16.3753659,19.3138762 16.3753659,22.9256466 C16.3753659,26.5373653 19.31305,29.4758239 22.9256466,29.4758239 C26.5381915,29.4758239 29.4758755,26.5373653 29.4758755,22.9256466 C29.4758755,19.3138245 26.5381915,16.3754176 22.9256466,16.3754176 L22.9256466,16.3754176 Z" id="形状"></path>
                </g>
            </g>
        </g>
    </g>
</svg>