<?xml version="1.0" encoding="UTF-8"?>
<svg width="46px" height="47px" viewBox="0 0 46 47" version="1.1" xmlns="http://www.w3.org/2000/svg" xmlns:xlink="http://www.w3.org/1999/xlink">
    <title>编组</title>
    <g id="页面-1" stroke="none" stroke-width="1" fill="none" fill-rule="evenodd">
        <g id="6我的-首页" transform="translate(-52.000000, -822.000000)" fill="#3F3F3F" fill-rule="nonzero">
            <g id="课程表" transform="translate(0.000000, 786.000000)">
                <g id="编组" transform="translate(52.000000, 36.000000)">
                    <path d="M22.9630055,0 C35.6451379,0 45.926011,9.55181756 45.926011,21.3345611 C45.926011,33.1173047 35.6451379,42.6691222 22.9630055,42.6691222 C20.755386,42.6691222 18.6204871,42.3797197 16.599954,41.8393888 L9.08695542,45.8852114 C8.27952436,46.3200551 7.27142463,46.0198185 6.8353125,45.2145542 C6.73052298,45.0210934 6.66539177,44.8086668 6.64373392,44.5897174 L5.73995864,35.445579 C2.16755974,31.6847725 0,26.7448989 0,21.3345611 C0,9.55181756 10.2808732,0 22.9630055,0 Z M22.9630055,2.99190257 C11.8922472,2.99190257 3.00019991,11.2533525 3.00019991,21.3345611 C3.00019991,25.7786558 4.72504136,29.9785869 7.8237523,33.2880078 L7.91803539,33.3880515 C8.36823116,33.8617716 8.65072354,34.4700111 8.72224265,35.1196048 L8.72567785,35.1521071 L9.43206112,42.2991245 L15.1744508,39.2068612 C15.8392163,38.849002 16.6142555,38.7542421 17.3456572,38.9413994 L17.3769439,38.949591 C19.1748759,39.4303608 21.0494922,39.6772197 22.9630055,39.6772197 C34.0337638,39.6772197 42.9258111,31.4157698 42.9258111,21.3345611 C42.9258111,11.2533525 34.0337638,2.99190257 22.9630055,2.99190257 Z M12.2105055,17.9960731 C14.1228562,17.9960731 15.6731893,19.5476218 15.6731893,21.4615579 C15.6731893,23.3754412 14.1228562,24.9269899 12.2105055,24.9269899 C10.298102,24.9269899 8.74782169,23.3754412 8.74782169,21.4615579 C8.74782169,19.5476218 10.298102,17.9960731 12.2105055,17.9960731 L12.2105055,17.9960731 Z M23.0237293,17.9960731 C24.9361328,17.9960731 26.4864131,19.5476218 26.4864131,21.4615579 C26.4864131,23.3754412 24.9361328,24.9269899 23.0237293,24.9269899 C21.1113787,24.9269899 19.5610455,23.3754412 19.5610455,21.4615579 C19.5610455,19.5476218 21.1113787,17.9960731 23.0237293,17.9960731 L23.0237293,17.9960731 Z M33.7155055,17.9960731 C35.627909,17.9960731 37.1781893,19.5476218 37.1781893,21.4615579 C37.1781893,23.3754412 35.627909,24.9269899 33.7155055,24.9269899 C31.8031549,24.9269899 30.2528217,23.3754412 30.2528217,21.4615579 C30.2528217,19.5476218 31.8031549,17.9960731 33.7155055,17.9960731 L33.7155055,17.9960731 Z" id="形状"></path>
                </g>
            </g>
        </g>
    </g>
</svg>