<?xml version="1.0" encoding="UTF-8"?>
<svg width="43px" height="48px" viewBox="0 0 43 48" version="1.1" xmlns="http://www.w3.org/2000/svg" xmlns:xlink="http://www.w3.org/1999/xlink">
    <title>编组</title>
    <g id="页面-1" stroke="none" stroke-width="1" fill="none" fill-rule="evenodd">
        <g id="6我的-首页" transform="translate(-52.000000, -702.000000)" fill="#3F3F3F" fill-rule="nonzero">
            <g id="我的课程" transform="translate(0.000000, 670.000000)">
                <g id="编组" transform="translate(52.000000, 32.000000)">
                    <path d="M38.530341,0 C40.8798435,0 42.7844929,1.90475506 42.7844929,4.25441603 L42.7844929,42.5444244 C42.7844929,44.8940853 40.8798435,46.7988404 38.530341,46.7988404 L4.25415193,46.7988404 C1.90464942,46.7988404 0,44.8940853 0,42.5444244 L0,4.25441603 C0,1.90475506 1.90464942,0 4.25415193,0 L38.530341,0 L38.530341,0 Z M38.530341,3.1604007 L22.9723148,3.1604007 L22.9723148,18.9626683 C22.9723148,20.3110137 21.3965249,21.0340716 20.375613,20.172413 L20.3448187,20.1457916 L16.2265207,16.4994435 L12.10817,20.1457916 C11.0986672,21.0396177 9.51273585,20.3389556 9.48114927,19.0032871 L9.48062107,18.9626155 L9.48062107,3.1604007 L4.25415193,3.1604007 C3.66076798,3.1604007 3.17772578,3.63293165 3.1606648,4.22224843 L3.16024224,4.25446885 L3.16024224,42.5444772 C3.16024224,43.1378611 3.63266755,43.6209562 4.22193151,43.6379643 L4.25415193,43.6384925 L38.530341,43.6384925 C39.1237249,43.6384925 39.6067671,43.1660144 39.6238281,42.5766976 L39.6242507,42.5444772 L39.6242507,4.25446885 C39.6242507,3.66108491 39.1518254,3.17798988 38.5625614,3.16098172 L38.530341,3.1604007 L38.530341,3.1604007 Z M19.8121253,3.88979707 L12.6408633,3.88979707 L12.6408633,15.4529665 L15.179093,13.2058299 C15.766561,12.6857078 16.6445411,12.6765699 17.2421506,13.1784689 L17.2738957,13.2058299 L19.8121253,15.453125 L19.8121253,3.88979707 L19.8121253,3.88979707 Z" id="形状"></path>
                </g>
            </g>
        </g>
    </g>
</svg>