<?xml version="1.0" encoding="UTF-8"?>
<svg width="46px" height="43px" viewBox="0 0 46 43" version="1.1" xmlns="http://www.w3.org/2000/svg" xmlns:xlink="http://www.w3.org/1999/xlink">
    <title>编组</title>
    <g id="页面-1" stroke="none" stroke-width="1" fill="none" fill-rule="evenodd">
        <g id="6我的-首页" transform="translate(-52.000000, -939.000000)" fill="#3F3F3F" fill-rule="nonzero">
            <g id="上课记录" transform="translate(0.000000, 902.000000)">
                <g id="编组" transform="translate(52.000000, 37.000000)">
                    <path d="M44.2633612,39.5727517 C45.1063099,39.5727517 45.7896839,40.2559726 45.7896839,41.0987682 C45.7896839,41.9294656 45.125708,42.6051824 44.2994007,42.6243253 L44.2633612,42.6247337 L1.5263228,42.6247337 C0.683374023,42.6247337 0,41.9415128 0,41.0987682 C0,40.2680198 0.663975941,39.592354 1.4902832,39.5732111 L1.5263228,39.5727517 L44.2633612,39.5727517 Z M29.0714466,1.22085405 C30.8263605,-0.439621804 33.5844616,-0.401693448 35.2930242,1.30646085 L39.6485574,5.66102406 C41.3909135,7.4030229 41.3909135,10.2272306 39.6485574,11.9692294 L23.9581632,27.6561523 C22.5565695,29.0573861 20.8588587,30.1268171 18.9897528,30.7858798 L9.41383833,34.1625755 C8.49656428,34.486013 7.49072266,34.0048384 7.16723411,33.0877686 C7.05769226,32.7773038 7.0374071,32.4423423 7.10868253,32.1209273 L9.06916504,23.2822931 C9.64286077,20.6960319 10.9778708,18.3408158 12.9021751,16.5201216 L29.0714466,1.22085405 Z M33.1344771,3.46454856 C32.5949041,2.92512873 31.7239302,2.91313255 31.1697576,3.43749334 L15.000435,18.7367609 C13.5188948,20.138542 12.4910613,21.9518565 12.0493741,23.9430531 L10.5925781,30.5105802 L17.9743652,27.9076638 C19.3817556,27.4114088 20.6633218,26.6128128 21.7289151,25.5680509 L21.799616,25.4980646 L37.4900102,9.81114169 C38.0402011,9.26105291 38.0402011,8.36920055 37.4900102,7.81911177 L33.1344771,3.46454856 Z" id="形状"></path>
                </g>
            </g>
        </g>
    </g>
</svg>