<?xml version="1.0" encoding="UTF-8"?>
<svg width="125px" height="131px" viewBox="0 0 125 131" version="1.1" xmlns="http://www.w3.org/2000/svg" xmlns:xlink="http://www.w3.org/1999/xlink">
    <title>编组</title>
    <defs>
        <path d="M25.5275,0 C11.47675,0.0575 0,11.57175 0,25.638 L0,25.638 L0,99.36675 C0,113.46575 11.53425,125 25.63325,125 L25.63325,125 L99.36225,125 C113.46225,125 124.999,113.46575 124.999,99.36675 L124.999,99.36675 L124.999,25.638 C124.999,11.57175 113.51975,0.0575 99.468,0 L99.468,0 L25.5275,0 Z" id="path-1"></path>
        <linearGradient x1="49.9999117%" y1="99.5563999%" x2="49.9999117%" y2="-1.57760276%" id="linearGradient-3">
            <stop stop-color="#E84D3B" offset="0%"></stop>
            <stop stop-color="#FF7050" offset="100%"></stop>
        </linearGradient>
        <path d="M25.5275,0 C11.47675,0.0575 0,11.57175 0,25.638 L0,25.638 L0,99.36675 C0,113.46575 11.53425,125 25.63325,125 L25.63325,125 L99.36225,125 C113.46225,125 124.999,113.46575 124.999,99.36675 L124.999,99.36675 L124.999,25.638 C124.999,11.57175 113.51975,0.0575 99.468,0 L99.468,0 L25.5275,0 Z" id="path-4"></path>
        <polygon id="path-6" points="0 131 124.894461 131 124.894461 0 0 0"></polygon>
    </defs>
    <g id="页面-1" stroke="none" stroke-width="1" fill="none" fill-rule="evenodd">
        <g id="6.26我的-设置-关于" transform="translate(-314.000000, -240.000000)">
            <g id="编组-2" transform="translate(169.000000, 240.000000)">
                <g id="编组" transform="translate(145.000000, 0.000000)">
                    <g>
                        <g>
                            <mask id="mask-2" fill="white">
                                <use xlink:href="#path-1"></use>
                            </mask>
                            <g id="Clip-2"></g>
                            <path d="M25.5275,0 C11.47675,0.0575 0,11.57175 0,25.638 L0,25.638 L0,99.36675 C0,113.46575 11.53425,125 25.63325,125 L25.63325,125 L99.36225,125 C113.46225,125 124.999,113.46575 124.999,99.36675 L124.999,99.36675 L124.999,25.638 C124.999,11.57175 113.51975,0.0575 99.468,0 L99.468,0 L25.5275,0 Z" id="Fill-1" fill="url(#linearGradient-3)" mask="url(#mask-2)"></path>
                        </g>
                        <g>
                            <mask id="mask-5" fill="white">
                                <use xlink:href="#path-4"></use>
                            </mask>
                            <g id="Clip-4"></g>
                            <path d="M125.144375,131.249925 L0.145625,131.249925 L0.145625,104.723925 C0.145625,104.723925 21.779625,98.815175 62.499375,98.915675 C111.417875,99.036425 125.144375,104.723925 125.144375,104.723925 L125.144375,131.249925 Z" id="Fill-3" fill="#FFFFFF" mask="url(#mask-5)"></path>
                        </g>
                    </g>
                    <g>
                        <path d="M50.4263224,115.699549 L47.8018214,115.699549 L47.8018214,106.652066 L49.8130489,106.652066 C49.8130489,106.652066 50.829516,106.747883 51.5705339,107.543115 C52.3115519,108.338597 55.9410429,112.262109 55.9410429,112.262109 L55.9410429,106.652066 L58.5203842,106.652066 L58.5203842,115.698052 L56.9283184,115.698052 C56.9283184,115.698052 56.0583084,115.694559 55.1773204,114.663027 C54.1174401,113.421646 50.4263224,109.414045 50.4263224,109.414045 L50.4263224,115.699549 Z" id="Fill-5" fill="#E94E3B"></path>
                        <mask id="mask-7" fill="white">
                            <use xlink:href="#path-6"></use>
                        </mask>
                        <g id="Clip-8"></g>
                        <polygon id="Fill-7" fill="#E94E3B" mask="url(#mask-7)" points="59.129491 107.554244 61.7926647 107.554244 61.7926647 105.993971 59.129491 105.993971"></polygon>
                        <polygon id="Fill-9" fill="#E94E3B" mask="url(#mask-7)" points="59.129491 115.671752 61.7926647 115.671752 61.7926647 108.353469 59.129491 108.353469"></polygon>
                        <path d="M70.9217315,109.04939 L70.9217315,107.819238 L66.5806637,107.819238 C66.5806637,107.819238 62.2608034,107.888356 62.2573083,111.764958 C62.2538174,115.64181 66.6053643,115.696705 66.6053643,115.696705 L70.9202345,115.696705 L70.9202345,114.481274 L67.2672904,114.481274 C67.2672904,114.481274 64.8783184,114.265686 64.8783184,111.764958 C64.8783184,109.257743 67.2737774,109.04939 67.2737774,109.04939 L70.9217315,109.04939 Z" id="Fill-10" fill="#E94E3B" mask="url(#mask-7)"></path>
                        <path d="M73.8638473,111.170817 C73.8638473,111.170817 73.921981,109.323842 76.0220309,109.323842 C78.1335579,109.323842 78.3129491,111.170817 78.3129491,111.170817 L73.8638473,111.170817 Z M80.8259232,111.764933 C80.8259232,111.764933 81.1607535,107.749346 76.035504,107.749346 C71.2218812,107.749346 71.2236277,111.380167 71.2236277,111.719769 C71.2236277,112.059371 71.2218812,115.699425 76.035504,115.699425 L80.5167914,115.699425 L80.5167914,114.477007 L76.1759731,114.477007 C75.036003,114.477007 74.4551647,114.028364 74.160005,113.54828 C73.8206836,112.997082 73.8583583,112.404712 73.8583583,112.404712 L80.8052146,112.404712 C80.8231786,112.182886 80.8259232,111.969792 80.8259232,111.764933 L80.8259232,111.764933 Z" id="Fill-11" fill="#E94E3B" mask="url(#mask-7)"></path>
                        <path d="M36.7641966,36.3524251 L47.8757236,36.3524251 C47.4238772,40.0044556 44.7502246,44.9180785 42.1406936,47.8180442 L36.7641966,47.8180442 L36.7641966,36.3524251 Z M52.24249,35.3298766 L52.24249,31.8505166 L46.478518,31.8505166 L47.729516,30.0197604 L44.2327595,27.4002594 L41.1913423,31.8505166 L36.7641966,31.8505166 L36.7641966,27.694947 L32.4642964,27.694947 L32.4642964,31.8505166 L21.6935878,31.8505166 L21.6935878,36.3524251 L32.4642964,36.3524251 L32.4642964,47.8180442 L16.9468313,47.8180442 L16.9468313,52.3199528 L32.4642964,52.3199528 L32.4642964,75.2818823 L36.7641966,75.2818823 L36.7641966,52.3199528 L52.5084581,52.3199528 L52.5084581,60.8731299 C52.5084581,64.097227 51.0391467,67.1800937 48.5785679,69.1183947 L46.1556637,71.0272518 L48.740993,74.6241375 L51.1638972,72.7155299 C54.6983283,69.9313432 56.8083583,65.5042918 56.8083583,60.8731299 L56.8083583,47.8180442 L47.6614022,47.8180442 C50.1793663,44.0736899 52.24249,39.2943109 52.24249,35.3298766 L52.24249,35.3298766 Z" id="Fill-12" fill="#FFFFFF" mask="url(#mask-7)"></path>
                        <path d="M76.8556637,52.6138669 L85.9172904,52.6138669 C84.7952844,60.1896592 82.4210329,67.5615907 78.6977295,75.4844707 L83.4641966,75.4844707 C86.9165419,67.7315164 89.1400948,60.1956478 90.2166916,52.6138669 L92.6827595,52.6138669 L92.6827595,75.708543 L94.8327096,75.708543 C99.1680389,75.708543 103.293538,73.528703 105.868638,69.8776707 L107.323229,67.8153564 L103.864396,65.1407107 L102.409805,67.203025 C101.074975,69.0954135 99.1343563,70.4119011 96.9826597,70.9441354 L96.9826597,52.6138669 L107.596931,52.6138669 L107.596931,48.1119583 L76.8556637,48.1119583 L76.8556637,52.6138669 Z" id="Fill-13" fill="#FFFFFF" mask="url(#mask-7)"></path>
                        <polygon id="Fill-14" fill="#FFFFFF" mask="url(#mask-7)" points="85.9558383 44.5681962 96.7053393 44.5681962 96.7053393 40.0662876 85.9558383 40.0662876"></polygon>
                        <polygon id="Fill-15" fill="#FFFFFF" mask="url(#mask-7)" points="76.7402695 44.4873505 81.0401697 44.4873505 81.0401697 32.2634286 76.7402695 32.2634286"></polygon>
                        <polygon id="Fill-16" fill="#FFFFFF" mask="url(#mask-7)" points="61.512475 75.7010324 65.8123752 75.7010324 65.8123752 32.1968057 61.512475 32.1968057"></polygon>
                        <path d="M74.760978,47.8237084 L74.760978,36.7453503 L74.7622255,36.7453503 L74.7622255,32.2434417 L67.247006,32.2434417 L67.247006,36.7453503 L70.4613273,36.7453503 L70.4613273,47.8237084 C70.4613273,48.3424684 70.4668164,48.9116322 70.4725549,49.516977 C70.4967565,52.0004874 70.5271956,55.0915884 70.1878743,57.7300531 C69.9221557,59.7953617 69.2889222,61.1617541 68.0087325,62.4215998 L66.7766966,63.4167008 L69.4031936,66.9813979 L70.7135729,65.9229179 L70.8572854,65.7959103 C72.9071856,63.817935 74.0486527,61.4457122 74.4493513,58.3309065 C74.8298403,55.3698074 74.7979042,52.0990493 74.7722056,49.470815 C74.7664671,48.8819389 74.760978,48.3282455 74.760978,47.8237084" id="Fill-17" fill="#FFFFFF" mask="url(#mask-7)"></path>
                        <path d="M94.6954591,32.2187139 L95.8663673,30.5052339 L92.3693613,27.8859825 L89.4082834,32.2187139 L81.056986,32.2187139 L81.056986,36.7206225 L103.36986,36.7206225 C103.180489,39.0913482 102.202944,41.301131 100.561976,43.019352 L103.626846,46.1770758 C106.174501,43.5101653 107.621108,39.964432 107.69995,36.2038587 L107.802246,32.2187139 L94.6954591,32.2187139 Z" id="Fill-18" fill="#FFFFFF" mask="url(#mask-7)"></path>
                    </g>
                </g>
            </g>
        </g>
    </g>
</svg>