<?xml version="1.0" encoding="UTF-8"?>
<svg width="52px" height="44px" viewBox="0 0 52 44" version="1.1" xmlns="http://www.w3.org/2000/svg" xmlns:xlink="http://www.w3.org/1999/xlink">
    <title>编组</title>
    <g id="页面-1" stroke="none" stroke-width="1" fill="none" fill-rule="evenodd">
        <g id="6我的-首页" transform="translate(-90.000000, -450.000000)" fill-rule="nonzero">
            <g id="我的钱包" transform="translate(40.000000, 410.000000)">
                <g id="编组" transform="translate(50.000000, 40.000000)">
                    <path d="M50.8953652,31.8951896 L32.0948912,31.8951896 C26.5032479,31.8951896 21.9671699,27.3591117 21.9671699,21.7674684 C21.9671699,16.1758251 26.5032479,11.6397472 32.0948912,11.6397472 L50.8953652,11.6397472 C51.3689431,11.6397472 51.7512289,12.022033 51.7512289,12.495611 L51.7512289,31.0393258 C51.7512289,31.5129038 51.3689431,31.8951896 50.8953652,31.8951896 Z" id="路径" fill="#FFE1E3"></path>
                    <path d="M45.2466643,43.363764 L5.42047051,43.363764 C2.43065309,43.363764 0,40.933111 0,37.9432935 L0,5.42047051 C0,2.43065309 2.43065309,0 5.42047051,0 L10.840941,0 C11.6283357,0 12.2673806,0.639044944 12.2673806,1.42643961 L12.2673806,36.231566 C12.2673806,37.0189607 11.6283357,37.6580056 10.840941,37.6580056 C10.0535463,37.6580056 9.4145014,37.0189607 9.4145014,36.231566 L9.4145014,2.85287921 L5.42047051,2.85287921 C4.00544242,2.85287921 2.85287921,4.00544242 2.85287921,5.42047051 L2.85287921,37.9432935 C2.85287921,39.3583216 4.00544242,40.5108848 5.42047051,40.5108848 L45.2466643,40.5108848 C46.6616924,40.5108848 47.8142556,39.3583216 47.8142556,37.9432935 L47.8142556,5.42047051 C47.8142556,4.00544242 46.6616924,2.85287921 45.2466643,2.85287921 L16.5466994,2.85287921 C15.7593048,2.85287921 15.1202598,2.21383427 15.1202598,1.42643961 C15.1202598,0.639044944 15.7593048,0 16.5466994,0 L45.2466643,0 C48.2364817,0 50.6671348,2.43065309 50.6671348,5.42047051 L50.6671348,37.9432935 C50.6671348,40.933111 48.2364817,43.363764 45.2466643,43.363764 Z" id="路径" fill="#3F3F3F"></path>
                    <path d="M33.6069171,23.2224368 L29.2705407,23.2224368 C28.4831461,23.2224368 27.8441011,22.5833919 27.8441011,21.7959972 C27.8441011,21.0086025 28.4831461,20.3695576 29.2705407,20.3695576 L33.6069171,20.3695576 C34.3943118,20.3695576 35.0333567,21.0086025 35.0333567,21.7959972 C35.0333567,22.5833919 34.3943118,23.2224368 33.6069171,23.2224368 Z" id="路径" fill="#3F3F3F"></path>
                </g>
            </g>
        </g>
    </g>
</svg>