<?xml version="1.0" encoding="UTF-8"?>
<svg width="46px" height="43px" viewBox="0 0 46 43" version="1.1" xmlns="http://www.w3.org/2000/svg" xmlns:xlink="http://www.w3.org/1999/xlink">
    <title>编组</title>
    <defs>
        <filter id="filter-1">
            <feColorMatrix in="SourceGraphic" type="matrix" values="0 0 0 0 0.247059 0 0 0 0 0.247059 0 0 0 0 0.247059 0 0 0 1.000000 0"></feColorMatrix>
        </filter>
    </defs>
    <g id="页面-1" stroke="none" stroke-width="1" fill="none" fill-rule="evenodd">
        <g id="6我的-首页" transform="translate(-52.000000, -704.000000)">
            <g id="编组" transform="translate(0.000000, 667.000000)" filter="url(#filter-1)">
                <g transform="translate(52.000000, 37.000000)">
                    <path d="M12.9859671,12.1679492 L26.0828703,12.1679492 C27.0346097,12.1679492 27.8061469,11.3964119 27.8061469,10.4446725 C27.8061469,9.49293307 27.0346097,8.72139578 26.0828703,8.72139578 L12.9859671,8.72139578 C12.0342277,8.72139578 11.2626905,9.49293307 11.2626905,10.4446725 C11.2626905,11.3964119 12.0342277,12.1679492 12.9859671,12.1679492 Z M24.7042489,18.8887285 C24.7042489,17.936989 23.9327116,17.1654517 22.9809721,17.1654517 L12.9859671,17.1654517 C12.0342277,17.1654517 11.2626905,17.936989 11.2626905,18.8887285 C11.2626905,19.8404679 12.0342277,20.6120052 12.9859671,20.6120052 L23.0039492,20.6120052 C23.9467035,20.599434 24.7042489,19.8315666 24.7042489,18.8887285 L24.7042489,18.8887285 Z" id="形状" fill="#000000" fill-rule="nonzero"></path>
                    <path d="M45.1652878,19.3023149 C44.6732155,18.9882396 44.0567489,18.9408191 43.5224307,19.1759412 L41.7646884,19.95716 L41.7646884,5.44717004 C41.7646884,4.01510697 41.1958036,2.64169747 40.1831821,1.62907596 C39.1705606,0.616454443 37.7971511,0.0475695999 36.365088,0.0475695999 L9.2177354,0.0475695999 C7.78567233,0.0475695999 6.41226284,0.616454443 5.39964133,1.62907596 C4.38701983,2.64169747 3.818135,4.01510697 3.81813501,5.44717004 L3.81813501,19.8307864 L2.49695616,19.1759412 C1.95213261,18.9134074 1.30955987,18.9556895 0.803835154,19.2873508 C0.298110435,19.6190122 0.0032582097,20.1915064 0.0269262212,20.7958214 L0.0269262212,37.6494677 C0.02691929,40.54462 2.37054213,42.8933823 5.26568744,42.8997678 L40.7077454,42.8997678 C42.104175,42.9058288 43.445507,42.3553782 44.4350949,41.3701022 C45.4246828,40.3848262 45.9809721,39.0459107 45.9809721,37.6494677 L45.9809721,20.7498673 C45.9794031,20.1583089 45.6704828,19.6100841 45.1652878,19.3023149 Z M7.28766546,5.44717004 C7.28766546,4.37744172 8.14808111,3.50670808 9.2177354,3.49412306 L36.365088,3.49412306 C36.8830683,3.49412306 37.3798334,3.6998899 37.7461008,4.06615726 C38.1123682,4.43242462 38.318135,4.92918977 38.318135,5.44717004 L38.318135,21.4736435 L22.774179,28.3667505 L7.28766546,21.393224 L7.28766546,5.44717004 Z M42.5344556,37.6494677 C42.5374785,38.1267782 42.3500087,38.5855902 42.0135724,38.9241832 C41.677136,39.2627763 41.2195312,39.4531738 40.7422109,39.453164 L5.30015299,39.453164 C4.81688758,39.4624698 4.35035206,39.2761795 4.00641216,38.9365659 C3.66247227,38.5969523 3.47029161,38.1328122 3.47344059,37.6494677 L3.47344059,23.461156 L22.0618913,31.8133039 C22.5073604,32.0148222 23.0180205,32.0148222 23.4634896,31.8133039 L42.5344556,23.392225 L42.5344556,37.6494677 Z" id="形状" fill="#000000" fill-rule="nonzero"></path>
                </g>
            </g>
        </g>
    </g>
</svg>