<?xml version="1.0" encoding="UTF-8"?>
<svg width="19px" height="24px" viewBox="0 0 19 24" version="1.1" xmlns="http://www.w3.org/2000/svg" xmlns:xlink="http://www.w3.org/1999/xlink">
    <title>编组</title>
    <g id="页面-1" stroke="none" stroke-width="1" fill="none" fill-rule="evenodd">
        <g id="6.16我的-意见反馈" transform="translate(-30.000000, -248.000000)" fill="#999FA6" fill-rule="nonzero">
            <g id="编组-9" transform="translate(0.000000, 167.000000)">
                <g id="编组-3" transform="translate(0.000000, 49.000000)">
                    <g id="编组-2" transform="translate(30.000000, 24.000000)">
                        <g id="编组" transform="translate(0.000000, 8.000000)">
                            <path d="M9.5,23.1431803 L8.96540909,23.8160468 C9.27896348,24.0613177 9.72103652,24.0613177 10.0345909,23.8160468 L9.5,23.1431803 Z M12.0909091,9.42870309 C12.0909091,10.8488837 10.9309196,12.0001676 9.5,12.0001676 L9.5,13.7144772 C11.884866,13.7144772 13.8181818,11.7956708 13.8181818,9.42870309 L12.0909091,9.42870309 Z M9.5,12.0001676 C8.06908042,12.0001676 6.90909091,10.8488837 6.90909091,9.42870309 L5.18181818,9.42870309 C5.18181818,11.7956708 7.11513403,13.7144772 9.5,13.7144772 L9.5,12.0001676 Z M6.90909091,9.42870309 C6.90909091,8.00852247 8.06908042,6.85723861 9.5,6.85723861 L9.5,5.14292896 C7.11513403,5.14292896 5.18181818,7.06173539 5.18181818,9.42870309 L6.90909091,9.42870309 Z M9.5,6.85723861 C10.9309196,6.85723861 12.0909091,8.00852247 12.0909091,9.42870309 L13.8181818,9.42870309 C13.8181818,7.06173539 11.884866,5.14292896 9.5,5.14292896 L9.5,6.85723861 Z M17.2727273,9.1646994 C17.2727273,12.4673169 15.2803182,15.7639344 13.1531818,18.3173986 C11.9849941,19.7115927 10.7002294,21.0053533 9.31259091,22.1848812 C9.2043281,22.2762282 9.09492572,22.3662364 8.98440909,22.454885 L8.96886364,22.4668852 L8.96540909,22.4694566 L9.5,23.1431803 C9.67777031,23.3680284 9.85625605,23.5923183 10.0354545,23.8160468 L10.0371818,23.8143325 L10.0432273,23.8091896 L10.0648182,23.7920465 C10.1882499,23.6943981 10.3097577,23.5943778 10.4292727,23.4920423 C11.8942734,22.2471856 13.2504221,20.8814294 14.4831818,19.4094139 C16.6750909,16.7813772 19,13.0887542 19,9.16555656 L17.2727273,9.16555656 L17.2727273,9.1646994 Z M9.5,23.1431803 C9.67780887,22.9183027 9.85600611,22.6937278 10.0345909,22.4694566 L10.0311364,22.4668852 L10.0155909,22.454885 C9.57885274,22.0983838 9.15289178,21.7290726 8.73827273,21.3474409 C7.70974508,20.4005205 6.74418771,19.3883815 5.84768182,18.3173986 C3.71968182,15.7630773 1.72727273,12.4673169 1.72727273,9.1646994 L0,9.1646994 C0,13.0887542 2.32577273,16.78052 4.51681818,19.410271 C5.74957788,20.8822866 7.10572665,22.2480428 8.57072727,23.4928995 C8.69798724,23.6003086 8.82668043,23.7060337 8.95677273,23.8100468 L8.96281818,23.8143325 L8.96454545,23.8160468 L9.5,23.1431803 Z M1.72727273,9.1646994 C1.72727273,5.07521373 5.18181818,1.71430965 9.5,1.71430965 L9.5,0 C4.27931818,0 0,4.07834266 0,9.1646994 L1.72727273,9.1646994 Z M9.5,1.71430965 C13.8181818,1.71430965 17.2727273,5.07435657 17.2727273,9.1646994 L19,9.1646994 C19,4.07834266 14.7206818,0 9.5,0 L9.5,1.71430965 Z" id="形状"></path>
                        </g>
                    </g>
                </g>
            </g>
        </g>
    </g>
</svg>